<svg xmlns="http://www.w3.org/2000/svg" version="1.1" xmlns:xlink="http://www.w3.org/1999/xlink" xmlns:svgjs="http://svgjs.com/svgjs" width="512" height="512" x="0" y="0" viewBox="0 0 512 512" style="enable-background:new 0 0 512 512" xml:space="preserve" class=""><g><path d="M430.5 245.75h-76.182M157.682 245.75H30.25c-11.046 0-20 8.954-20 20V482c0 11.046 8.954 20 20 20H430.5" style="stroke-width:20;stroke-linecap:round;stroke-linejoin:round;stroke-miterlimit:10;" fill="none" stroke="#020288" stroke-width="20" stroke-linecap="round" stroke-linejoin="round" stroke-miterlimit="10" data-original="#020288"></path><path d="M415.888 461H95.862c0-25.191-20.421-45.612-45.612-45.612v-83.025c25.191 0 45.612-20.421 45.612-45.612h320.025c0 25.191 20.421 45.612 45.612 45.612v83.025c-25.19 0-45.611 20.421-45.611 45.612z" style="stroke-width:20;stroke-linecap:round;stroke-linejoin:round;stroke-miterlimit:10;" fill="none" stroke="#020288" stroke-width="20" stroke-linecap="round" stroke-linejoin="round" stroke-miterlimit="10" data-original="#020288"></path><circle cx="256" cy="373.875" r="46.125" style="stroke-width:20;stroke-linecap:round;stroke-linejoin:round;stroke-miterlimit:10;" fill="none" stroke="#020288" stroke-width="20" stroke-linecap="round" stroke-linejoin="round" stroke-miterlimit="10" data-original="#020288"></circle><path d="M379.25 245.75h102.5c11.046 0 20 8.954 20 20V482c0 11.046-8.954 20-20 20h-56.375" style="stroke-width:20;stroke-linecap:round;stroke-linejoin:round;stroke-miterlimit:10;" fill="none" stroke="#020288" stroke-width="20" stroke-linecap="round" stroke-linejoin="round" stroke-miterlimit="10" data-original="#020288"></path><circle cx="256" cy="148.375" r="148.375" style="" fill="#a4fcc4" data-original="#a4fcc4"></circle><path d="M191 193.375v-90c0-11.046 8.954-20 20-20h90c11.046 0 20 8.954 20 20v90c0 11.046-8.954 20-20 20h-90c-11.046 0-20-8.954-20-20z" style="stroke-width:20;stroke-linecap:round;stroke-linejoin:round;stroke-miterlimit:10;" fill="none" stroke="#020288" stroke-width="20" stroke-linecap="round" stroke-linejoin="round" stroke-miterlimit="10" data-original="#020288"></path><path d="M281.102 83.375v70.02L256 133.314l-25.102 20.081v-70.02" style="stroke-width:20;stroke-linecap:round;stroke-linejoin:round;stroke-miterlimit:10;" fill="none" stroke="#020288" stroke-width="20" stroke-linecap="round" stroke-linejoin="round" stroke-miterlimit="10" data-original="#020288"></path></g></svg>