<svg xmlns="http://www.w3.org/2000/svg" version="1.1" xmlns:xlink="http://www.w3.org/1999/xlink" xmlns:svgjs="http://svgjs.com/svgjs" width="512" height="512" x="0" y="0" viewBox="0 0 64 64" style="enable-background:new 0 0 512 512" xml:space="preserve" class=""><g><linearGradient id="a" x1="39.77" x2="46.52" y1="43.16" y2="43.16" gradientUnits="userSpaceOnUse"><stop offset="0" stop-color="#5bb4f6"></stop><stop offset=".61" stop-color="#2191e5"></stop><stop offset="1" stop-color="#007edb"></stop></linearGradient><linearGradient xlink:href="#a" id="b" x1="3.4" x2="60.6" y1="32" y2="32"></linearGradient><g data-name="Layer 12"><path fill="url(#a)" d="M43.92 42.56h-1.55A1.37 1.37 0 0 1 41 41.22a1.32 1.32 0 0 1 .4-.95 1.46 1.46 0 0 1 1-.39h2.9a.6.6 0 0 0 .6-.6.59.59 0 0 0-.6-.6h-1.56v-1.62a.6.6 0 0 0-.6-.6.6.6 0 0 0-.6.6v1.62h-.17a2.67 2.67 0 0 0-1.84.73 2.54 2.54 0 0 0 1.84 4.35h1.55a1.37 1.37 0 0 1 1.4 1.34 1.3 1.3 0 0 1-.4.94 1.42 1.42 0 0 1-1 .4H41a.6.6 0 0 0 0 1.2h1.56v1.62a.6.6 0 0 0 .6.6.6.6 0 0 0 .6-.6v-1.62h.18a2.6 2.6 0 0 0 1.83-.74 2.51 2.51 0 0 0 .77-1.8 2.58 2.58 0 0 0-2.62-2.54z" data-original="url(#a)"></path><path fill="url(#b)" d="M32 3.4A28.59 28.59 0 0 0 3.4 32 28.59 28.59 0 0 0 32 60.6 28.59 28.59 0 0 0 60.6 32 28.59 28.59 0 0 0 32 3.4zm3.64 13.44h4.7a6.83 6.83 0 0 1 6.82 6.82v3.25l2.48-2.48a.59.59 0 0 1 .85 0 .57.57 0 0 1 .17.42.6.6 0 0 1-.17.43L47 28.79a.6.6 0 0 1-.85 0l-3.51-3.5a.61.61 0 0 1 0-.85.59.59 0 0 1 .85 0L46 26.91v-3.25A5.62 5.62 0 0 0 40.34 18h-4.7a.6.6 0 1 1 0-1.2zm-10.48 7.33a.6.6 0 0 0 .6-.6v-3.31L29.63 18v9.36l-8.11 4.68v-9.33l3-1.75v2.61a.6.6 0 0 0 .64.6zm0-5-7.53-5 3.26-1.89L29 17zm-1.16.71-3.11 1.79L12.82 17l3.68-2.12zm-3.71 2.83v9.36l-8.1-4.68V18zm8 24.45h-4.64a6.83 6.83 0 0 1-6.81-6.82v-3.25l-2.48 2.48a.59.59 0 0 1-.85 0 .58.58 0 0 1-.18-.42.6.6 0 0 1 .18-.43L17 35.21a.6.6 0 0 1 .85 0l3.5 3.5a.59.59 0 0 1 0 .85.58.58 0 0 1-.84 0L18 37.09v3.25A5.62 5.62 0 0 0 23.65 46h4.71a.6.6 0 1 1 0 1.2zM43.14 53A9.82 9.82 0 1 1 53 43.16 9.84 9.84 0 0 1 43.14 53z" data-original="url(#b)" class=""></path></g></g></svg>