<svg xmlns="http://www.w3.org/2000/svg" height="70" width="160" viewBox="-7.87053 -4.5766 68.21126 27.4596"><path d="M13.3502 1.4856c.0646 1.4633 1.329 7.0475 1.329 7.0475.4646 1.131.8646 0 .8646 0 1.5297-4.5876-1.5963-7.2461-1.5963-7.2461-.798-.4664-.5973.1986-.5973.1986M31.5003.6883s1.5304 1.0637 0 1.263c0 0-5.7182.6646-9.973 4.6549 0 0-6.3835 5.583-8.7764 11.7002 0 0-.798 0-.531-1.1963.2657-1.1966 1.8606-6.4494 8.974-12.8975 0 0 6.8502-6.2502 10.3064-3.5243" fill="#ff4600"/><path d="M2.4098 9.5395c.2526.0532.4794.0793.8125.0793 1.3042 0 2.183-.8389 2.183-1.9043 0-.9585-.6788-1.3042-1.5568-1.3042-.387 0-.6799.0268-.8661.0794zm-.7323-4.1547c.546-.1337 1.3585-.213 2.1572-.213.8393 0 1.718.1724 2.3036.6391.5193.3994.8255.9843.8255 1.7844 0 1.0647-.5062 1.9311-1.1454 2.4366-.7186.5726-1.7449.8523-2.81.8523-.3199 0-.5986-.0405-.8385-.0666l-.6526 3.3958H0zm9.3999 3.4614c-.1595-.0406-.3588-.0663-.6386-.0663-1.4248 0-2.5435 1.6118-2.5435 3.09 0 .678.253 1.2379.9324 1.2379.7317 0 1.6111-.9049 1.9174-2.5566zm-.6255 5.3672c0-.387.053-.9056.1069-1.4524h-.0268c-.639 1.186-1.505 1.5984-2.3305 1.5984-1.1581 0-1.918-.9056-1.918-2.2101 0-2.2105 1.5448-4.5678 4.5677-4.5678.7056 0 1.4648.133 1.971.2928l-.679 3.3824c-.187.9585-.2932 2.184-.2664 2.9567zm11.1831-2.5703c0 .8912.466 1.5188 1.265 1.5188 1.1585 0 1.9311-1.5988 1.9311-2.8904 0-.6664-.3069-1.4919-1.2382-1.4919-1.2386 0-1.958 1.6518-1.958 2.8635m4.794-1.3843c0 2.2098-1.5318 4.1004-3.7416 4.1004-1.6387 0-2.6497-1.1317-2.6497-2.6769 0-2.1964 1.531-4.1007 3.7415-4.1007 1.7442 0 2.6497 1.2517 2.6497 2.6772m.2917 3.9546l.8393-4.4747c.1594-.7725.2526-1.4516.3326-2.0104h1.3858l-.1468 1.1585h.0261c.5987-.866 1.4249-1.3053 2.3305-1.3053.9316 0 1.651.5599 1.651 1.7847 0 .2925-.0523.745-.1193 1.065l-.707 3.7822H30.755l.6918-3.6622c.0413-.2395.0808-.5193.0808-.7726 0-.546-.1997-.9324-.8121-.9324-.7056 0-1.6115.852-1.891 2.371l-.559 2.9962zM37.2654 8.74c-.9726 0-1.6111.8654-1.7974 1.6517 1.5974.013 2.6236-.2 2.6236-.9853 0-.4128-.333-.6664-.8262-.6664m1.4781 5.1001c-.6395.3327-1.5042.5193-2.2905.5193-1.796 0-2.6621-1.1046-2.6621-2.6896 0-1.9576 1.4372-4.088 3.6745-4.088 1.2781 0 2.0906.732 2.0906 1.8246 0 1.664-1.7438 2.1964-4.2471 2.1435-.0272.226.0261.6653.1729.9186.2532.44.7179.666 1.3313.666.7331 0 1.318-.1866 1.7854-.4261zM43.2963 8.74c-.9715 0-1.611.8654-1.7974 1.6517 1.5974.013 2.6237-.2 2.6237-.9853 0-.4128-.333-.6664-.8263-.6664m1.4782 5.1001c-.6385.3327-1.5043.5193-2.2892.5193-1.7974 0-2.6635-1.1046-2.6635-2.6896 0-1.9576 1.4373-4.088 3.6746-4.088 1.278 0 2.092.732 2.092 1.8246 0 1.664-1.7452 2.1964-4.2486 2.1435-.0275.226.0261.6653.1729.9186.2533.44.719.666 1.3314.666.733 0 1.318-.1866 1.7854-.4261zm.9057.3733l.7588-3.9952c.1729-.9187.266-1.9174.3316-2.49h1.3455c-.0398.4393-.0793.8919-.1464 1.3586h.0395c.4414-.866 1.1455-1.5053 2.025-1.5053.1206 0 .2399.0138.3468.0138l-.307 1.518c-.0797-.0138-.1862-.0138-.2931-.0138-1.106 0-1.8112 1.1187-2.0634 2.5033l-.4932 2.6106zm5.8788-5.8919h.1137c.1164 0 .1933-.065.1933-.163 0-.1104-.0808-.1588-.1972-.1588-.0536 0-.0917.0039-.1097.0081zm-.111-.3913a1.2862 1.2862 0 01.2123-.0176c.1179 0 .1962.024.248.0705.0427.0378.0674.0967.0674.1644 0 .1115-.0702.187-.1605.217v.0042c.0656.0226.104.0843.126.1732.0275.1186.048.2022.0659.2357h-.115c-.0138-.0261-.0332-.0984-.055-.2053-.0261-.1186-.0738-.1623-.174-.1665h-.104v.3718h-.1111z"/><path d="M51.7029 7.5817a.7678.7678 0 00-.7673.7673c0 .4233.344.7676.7673.7676s.7673-.3443.7673-.7676a.7678.7678 0 00-.7673-.7673m0 .1185a.648.648 0 01.648.6488c0 .3588-.2903.6494-.648.6494a.6494.6494 0 01-.6495-.6494.6485.6485 0 01.6495-.6488"/></svg>