<?xml version="1.0" encoding="utf-8"?>
<!-- Generator: Adobe Illustrator 28.4.1, SVG Export Plug-In . SVG Version: 6.00 Build 0)  -->
<svg version="1.1" id="Layer_1" xmlns="http://www.w3.org/2000/svg" xmlns:xlink="http://www.w3.org/1999/xlink" x="0px" y="0px"
	 viewBox="0 0 512 512" style="enable-background:new 0 0 512 512;" xml:space="preserve">
<style type="text/css">
	.st0{fill:#231F20;}
</style>
<g>
	<path class="st0" d="M471.41,504H277.18c-5.76,0-10.43-4.67-10.43-10.43V263.74c0-23,18.71-41.71,41.71-41.71h131.67
		c23,0,41.71,18.71,41.71,41.71v229.84C481.83,499.33,477.16,504,471.41,504z M287.6,483.15h173.38V263.74
		c0-11.5-9.35-20.85-20.85-20.85H308.46c-11.5,0-20.85,9.36-20.85,20.85V483.15z"/>
	<path class="st0" d="M438,242.88H310.58c-5.76,0-10.43-4.67-10.43-10.43v-59.98c0-5.76,4.67-10.43,10.43-10.43H438
		c5.76,0,10.43,4.67,10.43,10.43v59.98C448.43,238.21,443.76,242.88,438,242.88z M321.01,222.03h106.57V182.9H321.01V222.03z"/>
	<path class="st0" d="M399.54,182.9h-50.5c-5.76,0-10.43-4.67-10.43-10.43v-56.88c0-5.76,4.67-10.43,10.43-10.43h50.5
		c5.76,0,10.43,4.67,10.43,10.43v56.88C409.97,178.23,405.3,182.9,399.54,182.9z M359.47,162.04h29.65v-36.03h-29.65V162.04z"/>
	<path class="st0" d="M468.89,126.02H300.15V57.55l171.54,48L468.89,126.02z M321.01,105.16h71.92l-71.92-20.12V105.16z"/>
	<path class="st0" d="M471.41,447.1H277.18c-5.76,0-10.43-4.67-10.43-10.43V289.36c0-5.76,4.67-10.43,10.43-10.43h194.23
		c5.76,0,10.43,4.67,10.43,10.43v147.31C481.83,442.43,477.16,447.1,471.41,447.1z M287.6,426.24h173.38V299.78H287.6V426.24z"/>
	<g>
		<path class="st0" d="M220.54,405.25H54.24L30.17,8h214.45L220.54,405.25z M73.88,384.4h127.03l21.55-355.54H52.32L73.88,384.4z"/>
		<path class="st0" d="M181.53,504H93.25c-21.9,0-39.71-17.81-39.71-39.71v-69.46c0-5.76,4.67-10.43,10.43-10.43h146.85
			c5.76,0,10.43,4.67,10.43,10.43v69.46C221.24,486.19,203.43,504,181.53,504z M74.39,405.25v59.03c0,10.4,8.46,18.86,18.86,18.86
			h88.28c10.4,0,18.86-8.46,18.86-18.86v-59.03H74.39z"/>
		<path class="st0" d="M229.95,81.72H44.45c-5.76,0-10.43-4.67-10.43-10.43s4.67-10.43,10.43-10.43h185.5
			c5.76,0,10.43,4.67,10.43,10.43S235.71,81.72,229.95,81.72z"/>
	</g>
	<path d="M374.29,316.77c1.5,2.27,2.97,4.45,4.41,6.65c4.62,7.1,9.06,14.31,13.2,21.7c3.88,6.94,7.56,13.99,10.4,21.44
		c1.07,2.82,2,5.68,2.5,8.67c0.61,3.68,0.34,7.33-0.7,10.87c-3.69,12.54-11.97,20.34-24.83,22.69
		c-15.14,2.76-30.08-6.74-34.49-21.48c-1-3.33-1.49-6.73-1.25-10.2c0.21-3.05,1.1-5.96,2.11-8.83c2.39-6.78,5.58-13.18,9-19.48
		c5.88-10.84,12.4-21.29,19.29-31.5C374.02,317.15,374.12,317.01,374.29,316.77z"/>
</g>
</svg>
