<?xml version="1.0" encoding="utf-8"?>
<!-- Generator: Adobe Illustrator 28.4.1, SVG Export Plug-In . SVG Version: 6.00 Build 0)  -->
<svg version="1.1" id="Layer_1" xmlns="http://www.w3.org/2000/svg" xmlns:xlink="http://www.w3.org/1999/xlink" x="0px" y="0px"
	 viewBox="0 0 512 512" style="enable-background:new 0 0 512 512;" xml:space="preserve">
<style type="text/css">
	.st0{fill:#231F20;}
</style>
<path class="st0" d="M480.34,434.71c-1.92-12.77-3.58-25.81-5.19-38.42l-1.19-9.32c-1.8-14.01-3.57-28.02-5.34-42.03
	c-1.52-12.04-3.04-24.09-4.58-36.13c-1.7-13.25-3.42-26.49-5.14-39.74l-4.18-32.24c-2.62-20.37-13.05-34.24-31-41.22
	c-4.14-1.61-4.67-2.88-4.44-6.74c0.69-11.27-4.37-19.9-14.62-24.96c-0.46-0.23-0.56-0.38-0.56-0.38c-0.07-0.15-0.05-0.81-0.04-1.21
	l0.02-0.59c0.29-13.32-1-26.46-3.84-39.06c-8.97-39.78-34.8-74.41-70.9-95.03c-36.06-20.61-79-25.26-117.79-12.8
	c-63.19,20.31-103.95,76.25-103.83,142.51c0.01,5.24-0.34,7.34-4.07,8.64c-2.01,0.7-3.39,2.32-4.61,3.75l-0.7,0.82
	c-6.16,6.87-6.44,15.19-6,21.67c0.11,1.56,0.12,1.65-1.65,2.28c-19.78,7-31.15,21.4-33.77,42.81c-2.19,17.85-4.5,35.68-6.81,53.51
	l-9.43,72.44c-3.04,23.52-6.08,47.04-9.04,70.57c-2.9,22.98,4.73,42.15,22.68,56.96c8.62,7.12,18.81,10.24,28.5,12.83l0.34,0.09
	h345.03l1.02,0.27l0.8-1.14c0.18-0.05,0.37-0.04,0.56-0.05c0.39-0.03,0.77-0.06,1.15-0.13
	C462.76,496.96,485.04,465.83,480.34,434.71z M398.87,192.54c0-0.01,0.01-0.01,0.01-0.01l2.43,1.16L398.87,192.54z M399.09,192.03
	c-0.38-0.05-0.71-0.04-1.13-0.08c-4.98,0.05-9.95,0.05-14.93,0.04l-10.63-0.02c-4.71-0.02-9.42-0.03-14.13,0.06
	c-0.08,0-0.16,0-0.2,0c-0.01-0.1-0.02-0.22-0.02-0.36c-0.17-4.33,0.25-6.77,1.36-7.93c1.12-1.17,3.59-1.69,8-1.69l7.1-0.01
	c5.89-0.02,11.8-0.02,17.72,0.03c2.44,0.02,4.72,1.35,6.11,3.57C399.59,187.65,399.86,190,399.09,192.03z M159.02,163.79
	c-0.03-0.12-0.05-0.49-0.06-0.87c-2.47-57.48,38.17-94.62,79.6-101.61c5.99-1.01,11.89-1.5,17.68-1.5
	c45.32,0,83.54,30.02,94.24,76.4c1.74,7.56,2.47,15.96,2.29,26.42c-0.02,1.01-0.02,1.01-0.66,1.33
	c-10.41,5.21-15.46,14.02-14.58,25.48c0.15,1.92-0.13,2.36-0.12,2.36c-0.11,0.08-0.63,0.27-2.86,0.31
	c-19.76-0.18-39.51-0.15-59.26-0.13l-19.74,0.02l-18.01-0.01c-20.47-0.01-40.96-0.01-61.46,0.07c-0.49,0-1.79,0.01-1.85,0.14
	c-0.01-0.01-0.13-0.35-0.04-1.43C175.24,178.26,170,168.88,159.02,163.79z M383.39,161.39c-0.2,0.02-0.51,0.04-0.98,0.05
	c-4.06,0.07-7.58,0.12-8.25-0.53c-0.67-0.66-0.71-4.23-0.75-8.36c-0.49-51.23-40.54-99.9-91.18-110.79
	c-9.09-1.95-18.07-2.9-26.85-2.9c-54.91,0-101.92,36.83-114.74,93.63c-2.05,9.08-2.83,18.43-2.33,27.8
	c0.03,0.59,0.01,0.93,0.04,1.05c-0.22,0.04-0.55,0.05-1.61,0.08c-3.76-0.01-7.3-0.03-7.91-0.65c-0.63-0.64-0.55-4.33-0.48-8.23
	c1.16-60.22,47.22-112.64,107.15-121.93c7.75-1.2,14.24-1.76,20.44-1.76c0.03,0,0.05,0,0.07,0
	c62.05,0.06,116.05,46.22,125.61,107.36c1.2,7.66,1.78,15.63,1.79,24.34C383.42,160.94,383.41,161.2,383.39,161.39z M153.33,185.82
	c1.2,2.07,1.47,4.38,0.74,6.18c-0.29-0.02-0.53,0-0.85-0.04c-5.02,0.03-10.03,0.02-15.03,0.02l-10.48-0.02
	c-4.57-0.03-9.15-0.05-13.73,0.08c-0.54,0.02-0.88,0-1.02,0.03c-0.03-0.18-0.05-0.47-0.05-0.9c0.04-8.11,1.06-9.13,9.04-9.13
	l7.54-0.02c6.07-0.02,12.14-0.04,18.22,0.05C149.85,182.11,152,183.55,153.33,185.82z M99.94,476.65c0.07,2.72,0.15,5.53-0.11,6.04
	c-0.58,0.36-3.33,0.37-5.96,0.35c-12.3-0.02-23.4-4.52-31.26-12.67c-7.32-7.59-11.15-17.77-10.77-28.68l0.02-0.55
	c0.11-3,0.2-5.83,0.36-6.27c0.47-0.19,2.41-0.1,4.13-0.01l2.75,0.12C81.02,435.77,99.34,454.47,99.94,476.65z M259.46,312.29
	c2.85,0.04,5.7,0.07,8.53-0.09c0.2-0.01,0.37-0.01,0.49-0.01c0.03,0.22,0.05,0.57,0.06,1.11c0.06,3.89,0.11,7.57-0.54,8.23
	c-0.66,0.67-4.26,0.67-8.42,0.67l-4.62-0.03c-3.73-0.03-7.49-0.06-11.22,0.09c-0.22,0.01-0.4,0.01-0.54,0
	c-0.03-0.22-0.05-0.56-0.06-1.1c-0.06-3.89-0.11-7.58,0.54-8.23c0.66-0.67,4.25-0.67,8.41-0.67L259.46,312.29z M252.09,309.57
	L252.09,309.57L252.09,309.57L252.09,309.57z M227.91,347.74c0.08-3.01,2.37-4.82,6.12-4.83c14.51-0.06,29.02-0.05,43.53,0
	c2.15,0.01,3.94,0.63,5.03,1.76c0.83,0.86,1.23,1.97,1.19,3.3c-0.08,3-2.38,4.81-6.14,4.84c-5.09,0.05-10.2,0.04-15.31,0.03
	l-6.67-0.01l-6.5,0.01c-5,0.01-10.01,0.02-15.01-0.02c-2.17-0.02-3.96-0.65-5.04-1.78C228.27,350.18,227.87,349.07,227.91,347.74z
	 M426.39,224.49c-8.15,34.51-39.96,62.4-75.65,66.3c-4.72,0.52-9.62,0.77-14.97,0.77l-48.97,0l-114.24-0.01
	c-41.09-0.01-76.07-26.62-87.04-66.23c-0.69-2.48-0.37-3.69,1.36-5.2h0.01c5.74-5.01,12.3-7.44,20.07-7.44c0,0,0.01,0,0.01,0
	l111.64,0.01l186.07-0.01c0.01,0,0.01,0,0.01,0c8.12,0,14.9,2.63,20.71,8.03C426.59,221.83,426.81,222.68,426.39,224.49z
	 M199.85,312.32c6.73-0.13,13.45-0.26,20.18-0.18c2.1,0.03,2.63,0.34,2.64,0.25c0,0.01,0.16,0.41-0.09,1.74
	c-0.19,1.02-0.13,2.02-0.05,3.07c0.34,5.01,0.01,7.65-4.51,10.22c-9.46,5.37-13.47,17.53-9.53,28.92
	c3.55,10.26,13.42,17.16,24.55,17.18c15.32,0.03,30.64,0.05,45.95-0.01c11.51-0.03,21.35-7.5,24.49-18.59
	c3.2-11.28-1.39-23.07-11.16-28.67c-2.69-1.54-3.36-2.7-3.26-5.66l0.02-0.66c0.09-3.24,0.2-6.6,0.75-7.12
	c0.57-0.55,3.89-0.55,7.39-0.55c4.49,0,8.98,0.03,13.47,0.06c9.72,0.07,19.77,0.13,29.68-0.13c42.26-1.15,74.42-20.13,95.64-56.46
	l5.77,44.34c2.41,18.61,4.8,37.23,7.18,55.85l2.16,16.96c1.74,13.76,3.49,27.53,5.34,41.28c-0.38-0.07-0.66-0.01-1.19-0.13
	c-19.95,0.03-36.59,7.69-49.43,22.77c-10.79,12.66-15.74,27.73-14.71,44.79c0.05,0.86,0,1.3,0.04,1.41
	c-0.21,0.05-0.69,0.12-1.72,0.12c-0.01,0-0.01,0-0.02,0c-89.02-0.09-178.04-0.09-267.06,0.01c-0.01,0-0.02,0-0.03,0
	c-0.96,0-1.45-0.07-1.63-0.07c-0.05,0-0.08,0.01-0.09,0.02c-0.05-0.15-0.14-0.62-0.07-1.83c1.75-31.17-18.95-58.78-49.21-65.65
	c-5.23-1.18-10.33-1.44-16.14-1.5l20.43-158.28c4.22,7.43,8.14,13.07,12.53,18.08c18.94,21.64,42.47,34.21,69.92,37.36
	C172.03,312.85,186.18,312.58,199.85,312.32z M419.19,482.99l-1.43-0.01c-2.64,0.01-5.33,0.04-5.81-0.2
	c-0.35-0.6-0.28-3.43-0.2-6.16c0.3-11.4,5.21-22.09,13.81-30.11c8.64-8.05,19.74-12.23,31.16-11.69c2.23,0.1,2.52,0.2,2.91,2.5
	c1.76,10.52-1.33,21.62-8.47,30.47c-7.35,9.12-18,14.66-29.21,15.2C421.04,483.02,420.11,483,419.19,482.99z"/>
</svg>
