<?xml version="1.0" encoding="utf-8"?>
<!-- Generator: Adobe Illustrator 28.4.1, SVG Export Plug-In . SVG Version: 6.00 Build 0)  -->
<svg version="1.1" id="Layer_1" xmlns="http://www.w3.org/2000/svg" xmlns:xlink="http://www.w3.org/1999/xlink" x="0px" y="0px"
	 viewBox="0 0 512 512" style="enable-background:new 0 0 512 512;" xml:space="preserve">
<path d="M493.3,208.36c-10.15,0.87-16.68-1.32-22.54-11.43c-12.53-21.62-33.95-30.93-57.97-33.91c-11.81-1.47-23.83-1.72-35.75-1.74
	c-40.27-0.07-80.53-0.09-120.8-0.1v0c-0.08,0-0.17,0-0.25,0s-0.17,0-0.25,0v0c-40.27,0-80.53,0.03-120.8,0.1
	c-11.92,0.02-23.94,0.27-35.75,1.74c-24.02,2.98-45.44,12.29-57.97,33.91c-5.86,10.11-12.39,12.3-22.54,11.43
	c-6.53-0.56-10.47,3.2-10.69,8.57c-0.22,5.49,3.85,9.32,10.43,9.62c3.18,0.15,6.38,0.03,9.66,0.03c-0.79,7.74-1.65,14.9-2.25,22.09
	c-3.16,37.9,18.19,75.59,52.46,91.82c35.54,16.83,70.25,12.37,102.19-8.26c39.08-25.24,63.19-60.65,64.95-108.81
	c0.04-1.1,1.25-3.07,1.97-3.1c2.88-0.11,5.76-0.15,8.58-0.16c2.82,0.01,5.7,0.04,8.58,0.16c0.72,0.03,1.93,2,1.97,3.1
	c1.77,48.15,25.87,83.56,64.95,108.81c31.94,20.63,66.65,25.09,102.19,8.26c34.26-16.23,55.62-53.91,52.46-91.82
	c-0.6-7.19-1.45-14.35-2.25-22.09c3.28,0,6.47,0.12,9.66-0.03c6.58-0.3,10.65-4.14,10.43-9.62
	C503.77,211.57,499.83,207.81,493.3,208.36z M185.94,305.72c-15.16,13.72-32.97,22.44-53.35,25.42
	c-45.61,6.67-82.68-25.14-87.9-65.08c-1.78-13.64-0.58-27.07,2.98-40.27c6.59-24.43,22.95-38.6,47.37-43.53
	c7.7-1.55,15.69-2.54,23.53-2.41c28.39,0.45,56.77,1.45,85.15,2.36c2.54,0.08,5.08,0.83,7.57,1.49
	c10.68,2.83,14.02,6.87,14.86,17.98c0.45,5.95,0.76,11.91,1.05,16.65C227.63,255.11,211.38,282.71,185.94,305.72z M266.63,201.32
	c-3.41,0-6.91,0-10.38,0c-0.17,0-0.33,0-0.5,0c-3.47,0-6.97,0-10.38,0c-2.02-7.11-4.02-14.13-6.12-21.5c5.5,0,11.01,0,16.5,0
	c0.17,0,0.33,0,0.5,0c5.49,0,11,0,16.5,0C270.65,187.2,268.65,194.21,266.63,201.32z M467.31,266.07
	c-5.22,39.94-42.29,71.75-87.9,65.08c-20.38-2.98-38.19-11.71-53.35-25.42c-25.44-23.02-41.69-50.61-41.26-87.39
	c0.29-4.74,0.6-10.7,1.05-16.65c0.84-11.11,4.18-15.15,14.86-17.98c2.48-0.66,5.03-1.41,7.57-1.49c28.38-0.9,56.76-1.9,85.15-2.36
	c7.84-0.12,15.83,0.86,23.53,2.41c24.43,4.93,40.78,19.09,47.37,43.53C467.89,239,469.09,252.43,467.31,266.07z"/>
</svg>
