<?xml version="1.0" encoding="utf-8"?>
<!-- Generator: Adobe Illustrator 28.4.1, SVG Export Plug-In . SVG Version: 6.00 Build 0)  -->
<svg version="1.1" id="Layer_1" xmlns="http://www.w3.org/2000/svg" xmlns:xlink="http://www.w3.org/1999/xlink" x="0px" y="0px"
	 viewBox="0 0 512 512" style="enable-background:new 0 0 512 512;" xml:space="preserve">
<style type="text/css">
	.st0{fill:#231F20;}
</style>
<g>
	<g>
		<g>
			<path class="st0" d="M314.88,89.54h-146.7V8h146.7V89.54z M189.04,68.69h104.99V28.85H189.04V68.69z"/>
			<path class="st0" d="M143.56,171.66c-1.36,0-2.75-0.27-4.09-0.84c-5.3-2.26-7.76-8.39-5.5-13.68l35.04-82.12
				c1.64-3.84,5.42-6.33,9.59-6.33h125.84c4.17,0,7.95,2.49,9.59,6.34l35.03,82.12c2.26,5.3-0.2,11.42-5.5,13.68
				c-5.3,2.27-11.43-0.2-13.69-5.5l-32.33-75.78H185.5l-32.34,75.78C151.47,169.28,147.62,171.66,143.56,171.66z"/>
			<path class="st0" d="M314.88,504h-146.7v-81.54h146.7V504z M189.04,483.15h104.99v-39.83H189.04V483.15z"/>
			<path class="st0" d="M304.45,443.31H178.61c-4.21,0-8-2.53-9.62-6.4l-35.04-83.74c-2.22-5.31,0.28-11.42,5.59-13.64
				c5.34-2.22,11.43,0.29,13.64,5.6l32.36,77.33h111.96l32.36-77.33c2.22-5.31,8.33-7.81,13.64-5.6c5.32,2.22,7.82,8.33,5.6,13.64
				l-35.03,83.74C312.45,440.79,308.66,443.31,304.45,443.31z"/>
			<path class="st0" d="M241.53,400.43c-80,0-145.08-65.09-145.08-145.08s65.08-145.08,145.08-145.08
				c80,0,145.08,65.08,145.08,145.08S321.53,400.43,241.53,400.43z M241.53,131.12c-68.5,0-124.22,55.73-124.22,124.23
				s55.73,124.23,124.22,124.23s124.23-55.73,124.23-124.23S310.03,131.12,241.53,131.12z"/>
		</g>
		<rect x="394.7" y="231.09" class="st0" width="20.85" height="57.6"/>
	</g>
	<polygon class="st0" points="240.69,283.92 165.75,209.11 180.48,194.35 242.36,256.12 294.74,215.1 307.6,231.52 	"/>
</g>
</svg>
