<?xml version="1.0" encoding="utf-8"?>
<!-- Generator: Adobe Illustrator 28.4.1, SVG Export Plug-In . SVG Version: 6.00 Build 0)  -->
<svg version="1.1" id="Layer_1" xmlns="http://www.w3.org/2000/svg" xmlns:xlink="http://www.w3.org/1999/xlink" x="0px" y="0px"
	 viewBox="0 0 512 512" style="enable-background:new 0 0 512 512;" xml:space="preserve">
<style type="text/css">
	.st0{fill:#231F20;}
</style>
<g>
	<path class="st0" d="M369,504H143.01c-5.3,0-9.76-3.97-10.36-9.24L94.3,161.33c-0.34-2.95,0.6-5.91,2.58-8.13
		c1.98-2.22,4.81-3.49,7.78-3.49h302.69c2.97,0,5.8,1.27,7.78,3.49c1.98,2.22,2.91,5.18,2.58,8.13l-38.35,333.43
		C378.75,500.03,374.3,504,369,504z M152.3,483.15h207.4l35.95-312.58h-279.3L152.3,483.15z"/>
	<path class="st0" d="M416.65,115.61H95.35c-3.09,0-6.01-1.36-7.99-3.73c-1.98-2.36-2.82-5.48-2.28-8.52l15.35-86.76
		C101.31,11.63,105.64,8,110.7,8h290.61c5.06,0,9.39,3.63,10.27,8.61l15.34,86.76c0.53,3.03-0.3,6.15-2.28,8.52
		C422.66,114.25,419.73,115.61,416.65,115.61z M107.78,94.76h296.43l-11.65-65.91H119.44L107.78,94.76z"/>
	<path class="st0" d="M435.95,170.57H76.05c-5.76,0-10.43-4.67-10.43-10.43v-54.96c0-5.76,4.67-10.43,10.43-10.43h359.9
		c5.76,0,10.43,4.67,10.43,10.43v54.96C446.38,165.9,441.71,170.57,435.95,170.57z M86.48,149.72h339.05v-34.1H86.48V149.72z"/>
	<g>
		<path class="st0" d="M198.48,421.01c-4.93,0-9.31-3.51-10.24-8.53l-9.62-51.82c-10.19-54.95,26.22-107.96,81.17-118.15l51.83-9.62
			c2.73-0.51,5.53,0.09,7.81,1.66c2.28,1.57,3.84,3.97,4.35,6.69l9.61,51.82c4.94,26.62-0.78,53.57-16.11,75.89
			c-15.34,22.32-38.44,37.32-65.06,42.26l-51.82,9.62C199.75,420.95,199.11,421.01,198.48,421.01z M305.17,255.29l-41.57,7.71
			c-43.65,8.1-72.57,50.2-64.47,93.85l7.71,41.57l41.57-7.71l0,0c21.14-3.92,39.5-15.85,51.68-33.57
			c12.17-17.73,16.72-39.13,12.79-60.28L305.17,255.29z"/>
		<path class="st0" d="M198.48,421.01c-2.04,0-4.09-0.59-5.9-1.83c-4.75-3.26-5.95-9.75-2.69-14.5l111.87-162.85
			c3.26-4.75,9.75-5.95,14.5-2.69c4.75,3.26,5.95,9.75,2.69,14.5L207.08,416.48C205.06,419.42,201.8,421.01,198.48,421.01z"/>
		<path class="st0" d="M230.98,373.7c-5.28,0-9.81-3.99-10.36-9.35c-0.6-5.73,3.57-10.85,9.3-11.45l82.65-8.58
			c5.69-0.6,10.85,3.57,11.45,9.29c0.6,5.73-3.57,10.85-9.3,11.45l-82.65,8.58C231.7,373.68,231.33,373.7,230.98,373.7z"/>
		<path class="st0" d="M255.99,337.29c-4.5,0-8.64-2.93-9.99-7.46l-19.25-64.73c-1.64-5.52,1.5-11.33,7.02-12.97
			c5.53-1.64,11.33,1.5,12.97,7.02l19.25,64.73c1.64,5.52-1.5,11.33-7.02,12.97C257.98,337.15,256.98,337.29,255.99,337.29z"/>
	</g>
</g>
</svg>
