<svg xmlns="http://www.w3.org/2000/svg" version="1.1" xmlns:xlink="http://www.w3.org/1999/xlink" xmlns:svgjs="http://svgjs.com/svgjs" width="512" height="512" x="0" y="0" viewBox="0 0 64 64" style="enable-background:new 0 0 512 512" xml:space="preserve" class=""><g><path d="M28.999 29.167a1 1 0 0 0 .556-1.832c-2.772-1.848-5.495-.076-5.609 0a.997.997 0 0 0-.278 1.379c.302.461.923.586 1.382.289.07-.046 1.747-1.104 3.396-.004.17.113.363.168.553.168zM34.573 37.135c-2.505 1.185-5.101.021-5.149-.001a1 1 0 0 0-.85 1.81c.092.044 1.571.727 3.54.727a7.696 7.696 0 0 0 3.313-.727 1 1 0 1 0-.854-1.809zM34.445 27.335a.997.997 0 0 0-.278 1.379c.302.461.923.586 1.382.289.071-.046 1.747-1.104 3.396-.004a1.002 1.002 0 0 0 1.387-.277 1 1 0 0 0-.277-1.387c-2.773-1.848-5.495-.076-5.61 0z" fill="#272727" data-original="#000000" opacity="1" class=""></path><path d="M47.148 2.508C44.578.59 41.664-.314 39.338.094c-1.331.232-2.384.885-3.045 1.889-.38.58-.562 1.429-.627 2.205A14.543 14.543 0 0 0 33.454 4h-2.908C21.974 4 15 11.395 15 20.484V34.5c0 1.379 1.121 2.5 2.5 2.5h1a2.47 2.47 0 0 0 1.11-.271c.569 1.838 1.648 4.052 3.703 5.998a13.589 13.589 0 0 0 3.063 2.174c.108 2.133-.025 7.237-3.489 9.174-.975.544-2.253.925-3.105.925-2.514-.013-6.78-.026-7.103.005-4.243.416-7.722 3.543-8.656 7.78A.998.998 0 0 0 5 64h53.556a.999.999 0 0 0 .976-1.215c-.935-4.237-4.413-7.364-8.657-7.78-.323-.031-4.588-.018-7.098-.005-.855 0-2.134-.381-3.108-.926-3.34-1.867-3.583-6.677-3.499-8.933a13.683 13.683 0 0 0 3.518-2.415c2.05-1.941 3.129-4.15 3.7-6 .336.17.71.274 1.112.274h1c1.379 0 2.5-1.121 2.5-2.5V20.484a17.27 17.27 0 0 0-1-5.791c1.205-.261 2.694-.752 3.286-1.664 1.833-2.787.016-7.408-4.138-10.521zM19 34.5c0 .271-.229.5-.5.5h-1a.507.507 0 0 1-.5-.5v-6c0-.271.229-.5.5-.5h1c.271 0 .5.229.5.5zm20.692 21.32c.974.544 2.628 1.18 4.09 1.18 2.489-.011 6.569-.022 6.897-.005 2.961.29 5.456 2.245 6.531 5.005H6.345c1.074-2.76 3.566-4.714 6.509-5.003.351-.02 4.43-.009 6.924.003 1.458 0 3.112-.636 4.086-1.18 3.934-2.199 4.533-7.203 4.533-10.047A14.402 14.402 0 0 0 32 46.5l.069-.002a14.421 14.421 0 0 0 3.09-.584c.021 2.866.665 7.744 4.533 9.906zm-.38-14.547c-2.742 2.598-5.977 3.121-7.312 3.224-1.336-.103-4.57-.626-7.312-3.224C21.652 38.4 21.096 34.831 21 33.5v-9.733a10.267 10.267 0 0 0 3.651-2.008 10.25 10.25 0 0 0 2.757-3.801c2.303 2.337 7.797 6.798 15.592 6.16l.001 4.368L43 28.5v4.964c-.105 1.423-.675 4.958-3.688 7.809zM47 34.5c0 .271-.229.5-.5.5h-1a.507.507 0 0 1-.5-.5v-6c0-.271.229-.5.5-.5h1c.271 0 .5.229.5.5zm2.612-22.565c-.161.229-1.078.632-2.41.88a16.326 16.326 0 0 0-4.976-5.921.997.997 0 0 0-1.396.219.997.997 0 0 0 .219 1.396C44.775 11.227 47 15.703 47 20.484v5.566a2.577 2.577 0 0 0-.5-.05h-1c-.171 0-.338.018-.5.051V23a1.003 1.003 0 0 0-1.142-.99C35.07 23.265 29.155 16.985 28 15.641V11a1 1 0 1 0-2 0v4.883c-.255 1.034-.929 2.879-2.651 4.358a8.303 8.303 0 0 1-3.569 1.783A1 1 0 0 0 19 23l.001 3.051A2.504 2.504 0 0 0 18.5 26h-1c-.171 0-.338.018-.5.051v-5.566C17 12.498 23.077 6 30.546 6h2.908c1.79 0 3.533.373 5.181 1.107a.998.998 0 0 0 1.32-.506.998.998 0 0 0-.506-1.32 14.892 14.892 0 0 0-1.809-.656c.028-.661.17-1.309.325-1.544.354-.537.933-.88 1.72-1.018 1.758-.302 4.162.477 6.266 2.046 3.197 2.398 4.875 5.979 3.661 7.826zM13.008 12C12.592 11.992 9 11.756 9 6a1 1 0 1 0-2 0c0 5.762-3.599 5.992-4 6H2.982a1 1 0 0 0 .01 2c.416.008 4.008.244 4.008 6a1 1 0 1 0 2 0c0-5.756 3.592-5.992 4.008-6h.01a1 1 0 0 0-.01-2zM8 15.275A6.067 6.067 0 0 0 5.972 13 6.067 6.067 0 0 0 8 10.725 6.067 6.067 0 0 0 10.028 13 6.067 6.067 0 0 0 8 15.275z" fill="#272727" data-original="#000000" opacity="1" class=""></path><path d="M47 45H46.982a1 1 0 0 0 .01 2c.416.008 4.008.244 4.008 6a1 1 0 1 0 2 0c0-5.756 3.592-5.992 4.008-6h.01a1 1 0 0 0-.01-2c-.416-.008-4.008-.244-4.008-6a1 1 0 1 0-2 0c0 5.762-3.599 5.992-4 6zm5-1.275A6.067 6.067 0 0 0 54.028 46 6.067 6.067 0 0 0 52 48.275 6.067 6.067 0 0 0 49.972 46 6.067 6.067 0 0 0 52 43.725zM12.571 41a1 1 0 1 0-2 0c0 3.821-2.319 3.993-2.571 4h-.016a1 1 0 0 0 .005 2c.274.008 2.582.188 2.582 4a1 1 0 1 0 2 0c0-3.812 2.308-3.992 2.582-4h.005a1 1 0 0 0-.005-2c-.274-.008-2.582-.188-2.582-4zm-1 6.056A4.588 4.588 0 0 0 10.61 46c.34-.271.671-.617.961-1.056.29.438.621.784.961 1.056-.34.271-.671.617-.961 1.056z" fill="#272727" data-original="#000000" opacity="1" class=""></path></g></svg>