<svg xmlns="http://www.w3.org/2000/svg" version="1.1" xmlns:xlink="http://www.w3.org/1999/xlink" xmlns:svgjs="http://svgjs.com/svgjs" width="512" height="512" x="0" y="0" viewBox="0 0 512 512" style="enable-background:new 0 0 512 512" xml:space="preserve" class=""><g><g data-name="Layer 32"><path d="M387.38 296H124.621c-.121.927-.187 1.853-.387 2.781a47.958 47.958 0 0 0 56.993 56.985 34.33 34.33 0 0 1 7.257-.774c10.954 0 21.149 5.274 26.735 14.289a47.964 47.964 0 0 0 81.57-.008c6.8-10.984 20.445-16.437 33.992-13.507a47.958 47.958 0 0 0 56.985-56.993c-.199-.925-.266-1.848-.386-2.773ZM160 232h-16v16h16a8 8 0 0 0 0-16ZM184 416.336a7.665 7.665 0 0 0-13.086-5.422 23.708 23.708 0 0 1-33.469 0l-12.522-12.522-27.493 27.5 55.453 6.156A8 8 0 0 1 160 440v41.68L227.733 440h-20.069A23.693 23.693 0 0 1 184 416.336ZM374.555 410.914a23.709 23.709 0 0 1-33.469.008A7.66 7.66 0 0 0 328 416.336 23.693 23.693 0 0 1 304.336 440h-20.069L352 481.68V440a8 8 0 0 1 7.117-7.953l55.453-6.156-27.493-27.5ZM160 200h-16v16h16a8 8 0 0 0 0-16ZM124.62 152h262.759c.121-.927.187-1.853.387-2.781a47.958 47.958 0 0 0-56.993-56.985c-13.492 2.9-27.187-2.531-33.992-13.515a47.964 47.964 0 0 0-81.57.008c-6.805 10.976-20.484 16.406-33.992 13.507a47.958 47.958 0 0 0-56.985 56.993c.199.925.266 1.848.386 2.773Z" fill="#11b76b" data-original="#000000" class="" opacity="1"></path><path d="M401.273 183.211A29.9 29.9 0 0 1 389.079 168H122.921a29.918 29.918 0 0 1-12.2 15.219 47.964 47.964 0 0 0 .008 81.57A29.9 29.9 0 0 1 122.921 280h266.158a29.918 29.918 0 0 1 12.2-15.219 47.964 47.964 0 0 0-.008-81.57ZM184 240a24.027 24.027 0 0 1-24 24h-24a8 8 0 0 1-8-8v-64a8 8 0 0 1 8-8h24a23.989 23.989 0 0 1 17.875 40A23.918 23.918 0 0 1 184 240Zm64-40h-32v16h32v16h-32v16h32v16h-40a8 8 0 0 1-8-8v-64a8 8 0 0 1 8-8h40Zm40 16a24 24 0 1 1-24 24h16a8 8 0 1 0 8-8 24 24 0 1 1 24-24h-16a8 8 0 1 0-8 8Zm88-16h-16v64h-16v-64h-16v-16h48Z" fill="#11b76b" data-original="#000000" class="" opacity="1"></path><path d="M448.336 168a23.665 23.665 0 0 1-16.736-40.4 7.687 7.687 0 0 0 0-10.844L363.242 48.4a7.672 7.672 0 0 0-10.844.008A23.669 23.669 0 0 1 312 31.664 7.673 7.673 0 0 0 304.336 24h-96.672A7.673 7.673 0 0 0 200 31.664 23.665 23.665 0 0 1 159.6 48.4a7.687 7.687 0 0 0-10.844 0L80.4 116.758a7.68 7.68 0 0 0 .008 10.844A23.669 23.669 0 0 1 63.664 168 7.673 7.673 0 0 0 56 175.664v96.672A7.673 7.673 0 0 0 63.664 280 23.665 23.665 0 0 1 80.4 320.4a7.687 7.687 0 0 0 0 10.844l68.36 68.36a7.672 7.672 0 0 0 10.844-.008 23.367 23.367 0 0 1 16.586-6.985 23.992 23.992 0 0 1 9.2 1.86A23.294 23.294 0 0 1 200 416.336a7.673 7.673 0 0 0 7.664 7.664h96.672a7.673 7.673 0 0 0 7.664-7.664 23.665 23.665 0 0 1 40.4-16.736 7.687 7.687 0 0 0 10.844 0l68.36-68.36a7.68 7.68 0 0 0-.008-10.844A23.669 23.669 0 0 1 448.336 280a7.673 7.673 0 0 0 7.664-7.664v-96.672a7.673 7.673 0 0 0-7.664-7.664Zm-38.625 110.383c-5.266 3.258-7.789 10.1-6.305 17.039a63.95 63.95 0 0 1-75.976 75.984c-6.977-1.476-13.8 1.047-17.039 6.3a63.969 63.969 0 0 1-108.774.008c-3.25-5.258-10.062-7.781-17.039-6.305a63.95 63.95 0 0 1-75.984-75.976c1.484-6.946-1.039-13.789-6.3-17.039a63.969 63.969 0 0 1-.008-108.774c5.266-3.258 7.789-10.1 6.3-17.039a63.95 63.95 0 0 1 75.984-75.987c6.985 1.484 13.8-1.047 17.039-6.3a63.969 63.969 0 0 1 108.774-.008c3.25 5.258 10.07 7.789 17.039 6.3a63.95 63.95 0 0 1 75.984 75.976c-1.484 6.946 1.039 13.789 6.3 17.039a63.969 63.969 0 0 1 .008 108.774Z" fill="#11b76b" data-original="#000000" class="" opacity="1"></path></g></g></svg>