<svg xmlns="http://www.w3.org/2000/svg" version="1.1" xmlns:xlink="http://www.w3.org/1999/xlink" xmlns:svgjs="http://svgjs.com/svgjs" width="512" height="512" x="0" y="0" viewBox="0 0 512 512" style="enable-background:new 0 0 512 512" xml:space="preserve" class=""><g><path d="m511.372 410.736-75.826-203.825 25.838-79.502h27.676c5.522 0 10-4.477 10-10V78.928c0-36.373-25.946-67.646-61.694-74.36L413.965.172A10.036 10.036 0 0 0 412.118 0h-3.292c-5.522 0-10 4.477-10 10v28.47c0 14.466-11.769 26.234-26.234 26.234-14.465 0-26.234-11.769-26.234-26.234V10c0-5.523-4.478-10-10-10h-3.293c-.619 0-1.237.058-1.846.172l-23.401 4.396c-35.748 6.715-61.693 37.988-61.693 74.36v38.481c0 5.523 4.478 10 10 10H283.8l26.264 80.812L301.86 246H10c-5.522 0-10 4.477-10 10v246c0 5.522 4.478 10 10 10h336c5.522 0 10-4.478 10-10v-57.54c4.832.186 9.636.29 14.347.29 69.9 0 132.155-20.167 134.771-21.026a10.001 10.001 0 0 0 6.254-12.988zM300.576 114.318a10 10 0 0 0-9.511-6.909h-24.94V78.928c0-26.758 19.087-49.764 45.385-54.704l14.849-2.789V38.47c0 25.494 20.74 46.234 46.234 46.234s46.234-20.741 46.234-46.234V21.435l14.848 2.789c26.298 4.94 45.386 27.946 45.386 54.704v28.481h-24.94a10 10 0 0 0-9.511 6.909l-26.914 82.814H327.49l-26.914-82.814zM336 492H20V266H336v226zm34.347-67.25c-4.705 0-9.51-.106-14.347-.303V256c0-5.523-4.478-10-10-10h-23.674l6.269-28.868h89.415l70.882 190.536c-20.064 5.569-67.695 17.082-118.545 17.082z" fill="#272727" data-original="#000000" opacity="1" class=""></path><path d="M371.225 96.5h-.156c-5.522 0-10 4.477-10 10s4.477 10 10 10h.156c5.522 0 10-4.477 10-10s-4.478-10-10-10zM371.225 128.5h-.156c-5.522 0-10 4.477-10 10s4.477 10 10 10h.156c5.522 0 10-4.477 10-10s-4.478-10-10-10zM266 288c-16.542 0-30 13.458-30 30 0 13.036 8.361 24.152 20 28.28V360c0 31.972-20.025 61.212-49.83 72.761-5.149 1.995-7.707 7.787-5.711 12.938a10.003 10.003 0 0 0 9.326 6.39 9.977 9.977 0 0 0 3.611-.679c18.232-7.064 33.805-19.307 45.032-35.402C269.924 399.526 276 380.16 276 360v-13.72c11.639-4.128 20-15.243 20-28.28 0-16.542-13.458-30-30-30zm9.04 34.247c-1.6-3.393-5.041-5.747-9.04-5.747s-7.44 2.354-9.04 5.747A9.924 9.924 0 0 1 256 318c0-5.514 4.486-10 10-10s10 4.486 10 10c0 1.52-.351 2.955-.96 4.247zM149.712 432.716C119.513 420.958 100 392.415 100 360v-13.72c11.639-4.128 20-15.243 20-28.28 0-16.542-13.458-30-30-30s-30 13.458-30 30c0 13.036 8.361 24.152 20 28.28V360c0 20.132 6.061 39.477 17.527 55.943 11.197 16.081 26.733 28.325 44.929 35.409a9.958 9.958 0 0 0 3.626.685c4.002 0 7.781-2.42 9.32-6.375 2.005-5.146-.543-10.942-5.69-12.946zM90 316.5c-4 0-7.44 2.354-9.04 5.747A9.927 9.927 0 0 1 80 318c0-5.514 4.487-10 10-10 5.514 0 10 4.486 10 10 0 1.52-.351 2.955-.96 4.247C97.441 318.854 94 316.5 90 316.5zM178.157 438H178c-5.522 0-10 4.478-10 10s4.478 10 10 10h.156c5.522 0 10-4.478 10-10s-4.477-10-9.999-10zM243.702 189.703l-32-128.127A10 10 0 0 0 202 54h-27.916v-4c0-27.57-22.43-50-50-50s-50 22.43-50 50v4H42a10 10 0 0 0-9.702 7.577l-32 128.127a10.003 10.003 0 0 0 1.821 8.579A10.003 10.003 0 0 0 10 202.127h224a9.998 9.998 0 0 0 9.702-12.424zM94.084 50c0-16.542 13.458-30 30-30s30 13.458 30 30v4h-60v-4zM22.805 182.127l3.968-15.886H151c5.522 0 10-4.477 10-10s-4.478-10-10-10H31.767L49.81 74h24.274v13c0 5.523 4.478 10 10 10s10-4.477 10-10V74h60v13c0 5.523 4.478 10 10 10s10-4.477 10-10V74h20.106l27.005 108.127H22.805z" fill="#272727" data-original="#000000" opacity="1" class=""></path></g></svg>