<svg xmlns="http://www.w3.org/2000/svg" version="1.1" xmlns:xlink="http://www.w3.org/1999/xlink" xmlns:svgjs="http://svgjs.com/svgjs" width="512" height="512" x="0" y="0" viewBox="0 0 512 512" style="enable-background:new 0 0 512 512" xml:space="preserve"><g><path d="M250.715 394.665c-5.286 5.284-.377 14.129 6.772 12.662 3.7-.784 6.031-3.945 6.031-7.352 0-6.672-8.114-10.001-12.803-5.31zM257.487 417.62c-9.704-1.896-12.612 12.704-2.931 14.714 2.471.518 5.134-.372 6.762-2.05 4.139-4.137 2.202-11.373-3.831-12.664zM262.248 445.817c-3.652-5.557-12.368-3.797-13.583 2.701-1.351 6.474 5.986 11.423 11.513 7.702 3.491-2.308 4.352-7.063 2.07-10.403zM263.368 473.523c-.09-.48-11.578-8.135-14.273-1.4-3.464 8.209 8.043 14.526 13.164 7.032 1.173-1.786 1.484-3.843 1.109-5.632zM327.413 417.477h-36.342a7.501 7.501 0 0 0-7.502 7.502 7.501 7.501 0 0 0 7.502 7.502h36.342a7.501 7.501 0 0 0 7.502-7.502 7.502 7.502 0 0 0-7.502-7.502zM440.139 476.987a8.354 8.354 0 0 0-.07-.415l-8.13-40.832a7.5 7.5 0 0 0-8.822-5.892 7.5 7.5 0 0 0-5.892 8.822l8.086 40.614c1.704 12.669-3.833 17.712-15.584 17.712h-37.754v-82.02a7.501 7.501 0 0 0-7.502-7.502 7.501 7.501 0 0 0-7.502 7.502v82.02h-30.223c-4.144 0-7.502 3.358-7.502 7.502s3.358 7.502 7.502 7.502h82.982c22.258 0 33.335-14.385 30.411-35.013z" fill="#11b76b" data-original="#000000" opacity="1"></path><path d="M425.094 401.364c-6.536-32.682-6.778-58.827-37.24-71.52-4.132-1.684-3.543-1.154-8.043-2.61l-56.035-19.463-18.733-12.842v-14.498c28.05-17.138 44.777-44.513 47.92-74.444 22.911 1.061 38.712-20.82 29.169-39.866v-61.156c0-44.226-24.053-59.614-31.402-63.28C326.124 12.312 289.025-1.003 250.877.059c-.444.143-71.094-1.237-107.967 65.911a7.502 7.502 0 0 0 13.15 7.223c4.944-8.999 10.123-15.738 16.453-22.626C219.244.374 301.967 5.357 340.21 52.51a7.503 7.503 0 0 0 3.196 2.301c.237.089 23.722 9.353 23.722 50.155v47.341c-4.417-1.862-9.202-2.66-13.589-2.529v-18.024c0-32.156-28.675-56.688-62.72-46.475-41.33 12.4-53.85 54.681-108.988 35.952a19.86 19.86 0 0 0-17.916 2.651c-11.288 8.088-7.55 20.852-8.251 25.897-4.408-.132-9.152.656-13.589 2.529v-24.78c0-11.889 1.82-19.99 2.518-23.717a7.503 7.503 0 0 0-14.726-2.87c-4.583 22.816-2.031 30.233-2.795 65.184-1.795 3.584-2.805 7.57-2.805 11.772 0 16.079 14.62 28.896 31.974 28.094 3.336 31.881 22.398 60.449 50.721 76.06v12.914l-18.715 12.905-56.021 19.368c-3.393 1.206-17.074 3.977-28.015 17.242-5.057 6.135-8.625 13.594-10.391 22.322-21.254 110.784-23.371 109.082-22.146 120.429.802 7.447 5.39 24.769 30.631 24.769h189.432a7.501 7.501 0 0 0 7.502-7.502 7.501 7.501 0 0 0-7.502-7.502H155.064v-82.02c0-4.144-3.359-7.502-7.502-7.502s-7.502 3.358-7.502 7.502v82.02h-37.755c-11.497 0-17.315-4.823-15.584-17.712 23.303-116.993 21.971-111.206 23.303-114.981 2.506-7.101 7.004-12.808 13.166-16.95 8.108-5.477 7.476-2.817 64.092-23.28l16.673 43.078c2.319 5.989 8 9.649 14.101 9.649 7.746 0 10.714-5.037 24.828-14.392l2.618 5.932c4.02 9.111 17.001 9.128 21.03 0l2.618-5.932c13.702 9.052 16.756 14.177 24.648 14.177 6.167 0 12.049-3.675 14.455-9.898l16.498-42.694c49.103 17.052 57.299 19.688 58.22 19.973-.178-.05-.485-.123-.01.108 5.028 2.345 7.88 4.713 7.779 4.638 13.47 10.864 12.296 19.935 19.641 55.584a7.503 7.503 0 0 0 7.35 6.037c4.751-.001 8.285-4.342 7.363-8.969zM353.54 164.807c9.38-.501 16.395 5.991 16.395 13.087 0 7.799-7.819 13.556-16.395 13.102v-26.189zm-197.874 26.189c-8.631.456-16.395-5.353-16.395-13.102 0-7.243 7.197-13.58 16.395-13.087v26.189zm23.093 40.288c-11.222-23.622-7.404-39.667-8.09-72.559v-18.783c0-3.31 3.254-5.556 6.338-4.507 62.807 21.335 82.174-25.002 118.125-35.788 23.154-6.943 43.406 8.386 43.406 32.105 0 .145.134 63.998-.355 71.26-3.05 33.799-26.194 53.844-22.388 49.756-1.471 1.025-20.1 25.281-60.69 26.475-35.128-.25-63.692-20.64-76.346-47.959zm39.286 130.505-.098-.056-17.146-44.301 11.381-7.846 23.822 39.289-17.959 12.914zm41.204-14.102c-.023.049-.055.114-.093.201l-3.14 7.116c-4.778-10.813 2.773 2.529-34.051-58.262v-8.008c31.244 10.893 57.286 2.253 58.325 2.148v-.001l.113-.032.001.002c2.145-.682 4.119-1.018 9.637-3.144v9.079c-32.302 53.348-30.478 50.244-30.792 50.901zm34.313 13.799-17.535-12.611 23.819-39.318 11.382 7.803c-17.849 46.189-16.954 44.638-17.666 44.126z" fill="#11b76b" data-original="#000000" opacity="1"></path></g></svg>