<svg xmlns="http://www.w3.org/2000/svg" version="1.1" xmlns:xlink="http://www.w3.org/1999/xlink" xmlns:svgjs="http://svgjs.com/svgjs" width="512" height="512" x="0" y="0" viewBox="0 0 32 32" style="enable-background:new 0 0 512 512" xml:space="preserve" class=""><g><g fill-rule="evenodd"><path d="M27.747 15.507a.5.5 0 0 0-.41.576c.108.64.163 1.285.163 1.917 0 3.524-1.57 6.705-4.102 8.823a7.437 7.437 0 0 0-5.185-5.995A3.997 3.997 0 0 0 20 17.5c0-2.206-1.794-4-4-4s-4 1.794-4 4c0 1.388.711 2.61 1.787 3.328a7.437 7.437 0 0 0-5.185 5.995A11.467 11.467 0 0 1 4.5 18c0-.632.055-1.276.163-1.917a.5.5 0 1 0-.986-.166A12.559 12.559 0 0 0 3.5 18c0 6.14 4.386 11.323 10.428 12.323a.5.5 0 0 0 .163-.986 11.452 11.452 0 0 1-4.56-1.82C9.77 24.124 12.56 21.5 16 21.5s6.229 2.624 6.47 6.017a11.452 11.452 0 0 1-4.561 1.82.5.5 0 1 0 .163.986C24.114 29.323 28.5 24.141 28.5 18c0-.688-.06-1.389-.177-2.083a.498.498 0 0 0-.576-.41zM13 17.5c0-1.654 1.346-3 3-3s3 1.346 3 3-1.346 3-3 3-3-1.346-3-3zM21.476 5.479a.5.5 0 0 0-.404-.341l-3.195-.464-1.429-2.896c-.168-.34-.728-.34-.896 0l-1.429 2.896-3.195.464a.5.5 0 0 0-.277.853l2.312 2.253-.546 3.182a.5.5 0 0 0 .726.527L16 10.45l2.857 1.503a.494.494 0 0 0 .527-.038.5.5 0 0 0 .199-.49l-.546-3.18L21.35 5.99a.5.5 0 0 0 .127-.512zM18.15 7.71a.501.501 0 0 0-.144.443l.42 2.443-2.194-1.154a.504.504 0 0 0-.466 0l-2.193 1.154.419-2.443a.501.501 0 0 0-.144-.443l-1.774-1.729 2.452-.356a.501.501 0 0 0 .376-.273L16 3.13l1.097 2.223a.501.501 0 0 0 .376.273l2.452.356-1.774 1.729z" fill="#11b76b" data-original="#000000" class="" opacity="1"></path><path d="M4.035 13.523a.5.5 0 0 0 .726.528L7 12.873l2.24 1.178a.494.494 0 0 0 .526-.038.5.5 0 0 0 .199-.49l-.428-2.493 1.812-1.765a.5.5 0 0 0-.277-.854l-2.504-.363-1.12-2.27c-.168-.34-.728-.34-.896 0l-1.12 2.27-2.504.363a.5.5 0 0 0-.277.854l1.812 1.765zm.04-4.267L5.835 9a.501.501 0 0 0 .377-.273L7 7.13l.788 1.597A.501.501 0 0 0 8.164 9l1.761.256-1.274 1.241a.501.501 0 0 0-.144.443l.301 1.754-1.575-.828a.504.504 0 0 0-.466 0l-1.575.828.3-1.754a.501.501 0 0 0-.143-.443L4.075 9.256zM29.072 8.411l-2.504-.363-1.12-2.27c-.168-.34-.728-.34-.896 0l-1.12 2.27-2.504.363a.5.5 0 0 0-.277.854l1.812 1.765-.428 2.493a.5.5 0 0 0 .726.528L25 12.873l2.24 1.178a.494.494 0 0 0 .526-.038.5.5 0 0 0 .199-.49l-.428-2.493 1.812-1.765a.5.5 0 0 0-.277-.854zm-2.421 2.086a.501.501 0 0 0-.144.443l.301 1.754-1.575-.828a.504.504 0 0 0-.466 0l-1.575.828.3-1.754a.501.501 0 0 0-.143-.443l-1.274-1.241L23.835 9a.501.501 0 0 0 .377-.273L25 7.13l.788 1.597a.501.501 0 0 0 .376.273l1.761.256-1.274 1.241z" fill="#11b76b" data-original="#000000" class="" opacity="1"></path></g><circle cx="16" cy="30" r=".5" fill="#11b76b" data-original="#000000" class="" opacity="1"></circle></g></svg>