<svg xmlns="http://www.w3.org/2000/svg" version="1.1" xmlns:xlink="http://www.w3.org/1999/xlink" xmlns:svgjs="http://svgjs.com/svgjs" width="512" height="512" x="0" y="0" viewBox="0 0 512 512" style="enable-background:new 0 0 512 512" xml:space="preserve" class=""><g><path d="M495.395 437.676 443.18 350.66l4.675-39.98h6.649c11.785 0 21.371-9.586 21.371-21.371v-24.48c0-11.782-9.586-21.368-21.371-21.368h-29.32v-28.035c0-.074.003-.153.003-.23 0-1.762-.609-3.383-1.628-4.665 0-.004-.004-.008-.008-.011l-25.895-32.543V150.64c0-9.016-7.332-16.352-16.347-16.352h-30.153a43.29 43.29 0 0 0-.582-1.129c-3.715-6.988-13.953-15.933-30.437-26.594-3.414-2.203-5.453-5.964-5.453-10.066V76.625c3.21-1.594 5.425-4.906 5.425-8.73v-41.73C320.11 11.737 308.375 0 293.945 0h-28.492c-14.43 0-26.164 11.738-26.164 26.164v41.73c0 3.825 2.211 7.137 5.426 8.731V96.5c0 4.102-2.043 7.863-5.461 10.07a242.848 242.848 0 0 0-8.879 6.008c.023-.582.04-1.164.04-1.75 0-22.055-17.946-40-40-40-22.06 0-40 17.945-40 40 0 2.82.304 5.664.901 8.426.899 4.258 1.739 8.219 2.52 11.91-9.125-3.23-19.672-1.773-27.707 4.777-5.922 4.836-9.61 11.688-10.379 19.297-.773 7.61 1.465 15.063 6.273 20.95a28.272 28.272 0 0 0 4.325 4.292l22.328 17.993c-12.57 11.093-20.703 27.101-21.36 44.988H91.52l-1.563-2.938c.234-.12.469-.246.7-.367 23.98-12.758 43.984-33.707 35.812-49.07-8.172-15.363-36.723-10.488-60.703 2.27-.235.12-.47.246-.7.374l-10.082-18.953c.235-.12.47-.246.703-.367 11.95-6.355 22.262-14.3 29.043-22.375 11.172-13.293 9.036-22.43 6.766-26.695-2.27-4.266-8.652-11.149-25.922-9.317-10.48 1.114-22.836 5.227-34.781 11.582-.234.125-.469.25-.7.375l-7.558-14.203c-4.215-7.922-6.351-16.465-6.351-25.386 0-20.114 11.015-38.465 28.753-47.899 12.778-6.797 27.442-8.21 41.282-3.984 13.84 4.23 25.207 13.597 32.004 26.375l12.918 24.3a7.497 7.497 0 0 0 10.144 3.098 7.497 7.497 0 0 0 3.102-10.14L131.465 55.84C113.55 22.156 71.575 9.336 37.89 27.25 15.25 39.293 1.184 62.719 1.184 88.39c0 11.247 2.804 22.462 8.109 32.43l65.234 122.64H43.984c-11.785 0-21.37 9.587-21.37 21.368v24.48c0 11.786 9.585 21.372 21.37 21.372h6.645l4.68 39.98-52.215 87.016A21.502 21.502 0 0 0 .652 454.05a21.504 21.504 0 0 0 9.856 13.3 21.552 21.552 0 0 0 8.097 2.876 21.605 21.605 0 0 0 21.582-10.29l23.352-38.914 1.684 14.45a7.505 7.505 0 0 0 8.32 6.578 7.501 7.501 0 0 0 6.578-8.32l-3.941-33.774 53.574-89.277h238.98l53.575 89.277-9.414 80.469c-1.102 9.449-9.106 16.574-18.622 16.574H104.211c-9.516 0-17.52-7.125-18.621-16.582l-1.98-16.91a7.495 7.495 0 0 0-8.32-6.574 7.495 7.495 0 0 0-6.575 8.32l1.976 16.902C72.671 499.172 87.086 512 104.215 512h290.058c17.13 0 31.543-12.828 33.52-29.84l7.152-61.144 23.356 38.918c6.203 10.332 19.504 13.52 29.68 7.418 10.25-6.153 13.566-19.426 7.414-29.676zM72.809 206.598c24.156-12.852 39.304-10.551 40.418-8.47 1.105 2.083-5.457 15.934-29.614 28.782-.23.125-.465.25-.699.371L72.11 206.97c.235-.125.465-.25.7-.371zm-34.973-65.75c10.144-5.395 20.832-9.008 29.324-9.907 7.457-.789 10.738.778 11.094 1.442.351.664-.18 4.262-5.004 10.004-5.496 6.539-14.46 13.383-24.61 18.777-.23.125-.464.246-.699.371l-10.8-20.312c.23-.125.46-.25.695-.375zm392.707 188.754-11.356-18.922h13.567zm-152.07-86.141v-25.652l23.648-29.72h84.418l15.598 19.606h-33.98a7.5 7.5 0 0 0-7.5 7.5 7.5 7.5 0 0 0 7.5 7.5h42.027v20.766zm104.187-92.824v22.453h-76.656v-22.453a1.35 1.35 0 0 1 1.348-1.348h38.687c.066 0 .129.004.195.004s.133-.004.2-.004h34.875c.746 0 1.351.606 1.351 1.348zM265.453 15h28.492c6.157 0 11.164 5.008 11.164 11.164V62.63h-50.82V26.164c0-6.156 5.008-11.164 11.164-11.164zm-18.062 104.172c7.714-4.977 12.324-13.453 12.324-22.672V77.633h39.969V96.5c0 9.219 4.609 17.695 12.316 22.668 10.371 6.707 16.559 11.668 20.238 15.121h-24.886c-9.016 0-16.348 7.332-16.348 16.348v27.336l-25.899 32.547a7.486 7.486 0 0 0-1.632 4.667v28.274h-9.961c-.66-17.887-8.79-33.895-21.356-44.988 2.52-2.032 5.477-4.41 9.051-7.293l13.262-10.684a28.78 28.78 0 0 0 4.312-4.273c4.84-5.926 7.078-13.38 6.305-20.989-.774-7.609-4.461-14.46-10.395-19.297-5.925-4.832-13.379-7.066-20.98-6.292-.441.046-.883.101-1.316.164 4.101-3.27 9.187-6.883 14.996-10.637zM221.332 158c2.063-2.922 3.941-12.422 13.895-13.434a13.535 13.535 0 0 1 9.988 2.996 13.538 13.538 0 0 1 4.95 9.188c.472 4.664-1.45 9.14-5.087 12.05l-13.281 10.7c-5.39 4.344-9.367 7.55-12.574 10.133-1.36-.7-2.75-1.352-4.164-1.953zm-30.918-72.172c13.785 0 25 11.219 25 25 0 1.79-.187 3.567-.566 5.32l-2.914 13.782c-.016.074-.036.148-.047.222l-11.274 53.34c-3.32-.539-6.726-.82-10.199-.82-3.469 0-6.875.281-10.191.82l-.094-.437c-2.606-12.344-5.399-25.578-14.145-66.938a25.074 25.074 0 0 1-.57-5.285c0-13.785 11.215-25.004 25-25.004zm-56.738 80.91c-4.754-5.82-3.883-14.426 1.937-19.176 6.614-5.39 16.735-3.496 20.778 4.407l3.125 6.07c2.816 13.332 4.41 20.875 5.933 28.11l.324 1.527a64.137 64.137 0 0 0-4.164 1.953c-27.312-22.125-26.39-20.98-27.933-22.89zm56.738 30.934c25.758 0 46.852 20.332 48.082 45.789h-96.164c1.23-25.457 22.324-45.79 48.082-45.79zM65.73 310.68H79.3l-11.355 18.922zM27.324 452.215a6.618 6.618 0 0 1-6.617 3.156h-.004a6.639 6.639 0 0 1-2.476-.883 6.58 6.58 0 0 1-3.02-4.078 6.591 6.591 0 0 1 .746-5.02l53.496-89.148c.008-.004.012-.012.016-.02l29.375-48.949c.101-.16.203-.324.293-.492l16.36-27.261a6.58 6.58 0 0 1 4.077-3.02 6.53 6.53 0 0 1 1.618-.203 6.62 6.62 0 0 1 3.402.95c3.133 1.882 4.156 5.96 2.273 9.097l-7.668 12.777a8.444 8.444 0 0 0-.242.402zm111.43-156.535.973-1.618c2.972-4.953 3.835-10.769 2.437-16.375a21.504 21.504 0 0 0-9.855-13.3 21.483 21.483 0 0 0-16.375-2.438 21.494 21.494 0 0 0-13.301 9.856L88.3 295.68H43.984a6.377 6.377 0 0 1-6.37-6.371v-24.48c0-3.513 2.859-6.368 6.37-6.368h410.52c3.512 0 6.371 2.855 6.371 6.367v24.48a6.377 6.377 0 0 1-6.371 6.372h-44.317l-14.328-23.875a21.473 21.473 0 0 0-13.304-9.856c-5.606-1.402-11.418-.535-16.375 2.438a21.484 21.484 0 0 0-9.852 13.3 21.483 21.483 0 0 0 2.438 16.375l.968 1.618zM477.78 455.37c-.144-.023-4.383.57-6.617-3.156l-99.539-165.867c-1.883-3.137-.863-7.22 2.273-9.098a6.625 6.625 0 0 1 9.098 2.273c5.535 9.227 40.64 67.723 46.008 76.668l.035.059 53.492 89.145c2.469 4.105-.117 9.32-4.75 9.976zm0 0" fill="#272727" data-original="#000000" opacity="1" class=""></path><path d="M171.781 376.168v-24.816c0-11.043-8.984-20.032-20.027-20.032-11.047 0-20.031 8.989-20.031 20.032v24.816c0 11.043 8.984 20.031 20.03 20.031 11.044 0 20.028-8.988 20.028-20.031zm-25.058 0v-24.816a5.038 5.038 0 0 1 5.03-5.032 5.038 5.038 0 0 1 5.032 5.032v24.816a5.038 5.038 0 0 1-5.031 5.031 5.038 5.038 0 0 1-5.031-5.031zM220.527 457.242V432.43c0-11.047-8.984-20.032-20.027-20.032-11.047 0-20.031 8.985-20.031 20.032v24.812c0 11.047 8.984 20.031 20.031 20.031 11.043 0 20.027-8.984 20.027-20.03zm-25.058 0V432.43a5.035 5.035 0 0 1 5.031-5.032 5.035 5.035 0 0 1 5.027 5.032v24.812a5.035 5.035 0 0 1-5.027 5.031 5.035 5.035 0 0 1-5.031-5.03zM269.273 376.168v-24.816c0-11.043-8.984-20.032-20.027-20.032-11.047 0-20.031 8.989-20.031 20.032v24.816c0 11.043 8.984 20.031 20.031 20.031 11.043 0 20.027-8.988 20.027-20.031zm-25.058 0v-24.816a5.035 5.035 0 0 1 5.031-5.032 5.035 5.035 0 0 1 5.027 5.032v24.816a5.035 5.035 0 0 1-5.027 5.031 5.035 5.035 0 0 1-5.031-5.031zM318.02 457.242V432.43c0-11.047-8.985-20.032-20.032-20.032-11.043 0-20.031 8.985-20.031 20.032v24.812c0 11.047 8.988 20.031 20.031 20.031 11.047 0 20.032-8.984 20.032-20.03zm-25.06 0V432.43a5.035 5.035 0 0 1 5.028-5.032 5.035 5.035 0 0 1 5.032 5.032v24.812a5.035 5.035 0 0 1-5.032 5.031 5.035 5.035 0 0 1-5.027-5.03zM366.766 376.168v-24.816c0-11.043-8.985-20.032-20.032-20.032-11.043 0-20.03 8.989-20.03 20.032v24.816c0 11.043 8.987 20.031 20.03 20.031 11.047 0 20.032-8.988 20.032-20.031zm-25.063 0v-24.816c0-2.774 2.258-5.032 5.031-5.032s5.032 2.258 5.032 5.032v24.816c0 2.773-2.258 5.031-5.032 5.031s-5.03-2.258-5.03-5.031zm0 0" fill="#272727" data-original="#000000" opacity="1" class=""></path></g></svg>