<svg xmlns="http://www.w3.org/2000/svg" version="1.1" xmlns:xlink="http://www.w3.org/1999/xlink" xmlns:svgjs="http://svgjs.com/svgjs" width="512" height="512" x="0" y="0" viewBox="0 0 33 33" style="enable-background:new 0 0 512 512" xml:space="preserve" class=""><g><path fill="#11b76b" d="M14.414 8.283a3.035 3.035 0 0 1-3.511-2.457 3.033 3.033 0 0 1 2.458-3.51 3.032 3.032 0 0 1 3.51 2.457 3.033 3.033 0 0 1-2.457 3.51zm-.689-3.902a.931.931 0 0 0-.757 1.08.934.934 0 1 0 .757-1.08zM11.688 8.818a4.21 4.21 0 0 1-1.262-1.207L5.195 13l2.937-.518zM17.929 6.287a4.176 4.176 0 0 1-.771 1.566l4.595 2.227 2.938-.518z" data-original="#58595b" class="" opacity="1"></path><g fill="#00a79d"><path d="M10.772 23.855a1.372 1.372 0 0 0-.269.07l.177 1.006.308-.055c.341-.059.458-.266.404-.568-.064-.369-.245-.519-.62-.453zM14.689 23.166a1.452 1.452 0 0 0-.27.068l.178 1.008.307-.055c.342-.061.459-.268.405-.568-.065-.371-.245-.521-.62-.453zM6.919 24.705l-.012.002s.016.285-.004.545l-.085 1.178.773-.137-.482-1.076c-.107-.24-.19-.512-.19-.512z" fill="#11b76b" data-original="#00a79d" class="" opacity="1"></path><path d="M28.138 9.531 1.943 14.148a1.748 1.748 0 0 0-1.417 2.023L2.84 29.287a1.745 1.745 0 0 0 2.022 1.416l26.194-4.617a1.748 1.748 0 0 0 1.417-2.023L30.16 10.947a1.745 1.745 0 0 0-2.022-1.416zm-8.89 3.924.914 2.604c.104.299.214.674.214.674l.015-.002s-.033-.391-.021-.709l.089-2.779 1.152-.203 1.035 2.582c.118.295.221.672.221.672l.015-.002s-.024-.391-.029-.707l-.031-2.758 1.438-.254-.338 5.369-1.359.24-.885-2.191c-.141-.342-.266-.76-.266-.76l-.014.002s.024.438.01.807l-.086 2.36-1.358.238-2.153-4.93zm-6.006 1.059 2.818-.496.208 1.182-1.423.25.144.818 1.253-.221.202 1.152-1.252.221.145.818 1.423-.252.209 1.182-2.819.496zm-6.077 1.072 1.145-.201 1.625 1.971c.224.27.426.586.426.586l.015-.004s-.08-.373-.144-.729l-.37-2.098 1.203-.213.907 5.15-1.103.193-1.683-2.049a6.8 6.8 0 0 1-.426-.586l-.015.004s.079.361.141.707l.389 2.205-1.202.213zM8.242 27.75l-.301-.672-1.184.207-.051.735-1.189.21.554-4.346 1.354-.238 2.008 3.895zm3.82-.674-.59-1.115c-.096-.182-.259-.305-.476-.268l-.175.031.269 1.523-1.116.197-.699-3.967c.338-.211.809-.377 1.32-.467 1.104-.193 1.75.178 1.9 1.033.094.529-.188.889-.464 1.09l.002.012c.246.098.436.311.582.572l.636 1.148zm3.917-.689-.589-1.115c-.097-.184-.259-.309-.476-.268l-.176.029.268 1.523-1.115.197-.699-3.965c.339-.213.809-.377 1.32-.467 1.104-.195 1.75.178 1.9 1.031.094.531-.188.891-.465 1.092l.002.01c.246.098.436.311.582.572l.637 1.148zm2.966-.526-1.138.201-.727-4.119 1.138-.199zm1.765-.31-1.926-3.908 1.239-.217.857 2.195c.105.268.209.621.209.621l.012-.002s-.023-.365-.017-.654l.054-2.357 1.24-.219-.475 4.33zm5.026-.885-.301-.674-1.184.209-.051.735-1.189.211.554-4.346 1.354-.238 2.007 3.893zm3.86-.682-2.127.375-.727-4.119 1.138-.201.56 3.176.99-.174z" fill="#11b76b" data-original="#00a79d" class="" opacity="1"></path><path d="m24.413 21.621-.011.002s.014.285-.004.545l-.086 1.178.774-.137-.483-1.076c-.107-.24-.19-.512-.19-.512z" fill="#11b76b" data-original="#00a79d" class="" opacity="1"></path></g></g></svg>