<svg xmlns="http://www.w3.org/2000/svg" version="1.1" xmlns:xlink="http://www.w3.org/1999/xlink" xmlns:svgjs="http://svgjs.com/svgjs" width="512" height="512" x="0" y="0" viewBox="0 0 512 512" style="enable-background:new 0 0 512 512" xml:space="preserve" class=""><g><path d="M372.448 370.11h47.39l64.93 64.46 14.67 14.49c6.69 6.61 6.76 17.4.14 24.1l-28.61 28.97c-4.61 4.66-12.56 2.06-13.53-4.42l-4.65-31.16-76.69-75.76c-1.13-1.12-2.37-2.5-3.65-4.04" style="stroke-width:15;stroke-linecap:round;stroke-linejoin:round;stroke-miterlimit:10;" fill="none" stroke="#11b76b" stroke-width="15" stroke-linecap="round" stroke-linejoin="round" stroke-miterlimit="10" data-original="#000000" class="" opacity="1"></path><path d="M314.679 504.5h40.72c9.42 0 17.05-7.63 17.05-17.04V370.111h-45.23v96.459l-18.9 25.19c-3.93 5.25-.19 12.74 6.36 12.74zM373.908 7.51c-.32-.01-.64-.01-.97-.01-20.68 0-37.43 16.76-37.43 37.43 0 20.68 16.75 37.43 37.43 37.43" style="stroke-width:15;stroke-linecap:round;stroke-linejoin:round;stroke-miterlimit:10;" fill="none" stroke="#11b76b" stroke-width="15" stroke-linecap="round" stroke-linejoin="round" stroke-miterlimit="10" data-original="#000000" class="" opacity="1"></path><path d="M314.683 504.5H355.4c9.416 0 17.045-7.629 17.045-17.045V466.57h-45.231l-18.893 25.194c-3.932 5.25-.194 12.736 6.362 12.736zM452.787 466.55l4.647 31.158c.97 6.485 8.926 9.079 13.532 4.422l28.616-28.973c6.618-6.699 6.546-17.484-.143-24.102l-14.665-14.481-31.987 31.976zM414.558 137.27h39.38c5.11 0 9.24-4.22 9.05-9.32-.37-10.48-3.86-27.81-20.69-41.43-21.94-17.76-1.05-79.02-69.36-79.02v74.86l12.14 26.04M157.927 199.291v-45.252c0-9.261-7.507-16.768-16.768-16.768h0c-9.261 0-16.768 7.507-16.768 16.768v45.252M217.268 286.865v53.84M179.284 286.865l4.79 53.84M141.299 286.865l9.582 53.84M103.314 286.865l14.373 53.84M65.33 286.865l19.163 53.84M133.936 378.181h126.436V241.953H28.006c-14.344 0-24.247 14.36-19.15 27.768l36.246 95.335a20.36 20.36 0 0 0 19.032 13.125h32.369" style="stroke-width:15;stroke-linecap:round;stroke-linejoin:round;stroke-miterlimit:10;" fill="none" stroke="#11b76b" stroke-width="15" stroke-linecap="round" stroke-linejoin="round" stroke-miterlimit="10" data-original="#000000" class="" opacity="1"></path><circle cx="214.594" cy="484.302" r="20.198" style="stroke-width:15;stroke-linecap:round;stroke-linejoin:round;stroke-miterlimit:10;" fill="none" stroke="#11b76b" stroke-width="15" stroke-linecap="round" stroke-linejoin="round" stroke-miterlimit="10" data-original="#000000" class="" opacity="1"></circle><circle cx="93.304" cy="484.302" r="20.198" style="stroke-width:15;stroke-linecap:round;stroke-linejoin:round;stroke-miterlimit:10;" fill="none" stroke="#11b76b" stroke-width="15" stroke-linecap="round" stroke-linejoin="round" stroke-miterlimit="10" data-original="#000000" class="" opacity="1"></circle><path d="m199.838 241.95-9.231-53a11.172 11.172 0 0 0-11.006-9.255h-76.884a11.17 11.17 0 0 0-11.006 9.255l-9.231 53.003M230.372 378.181v50.741a5.182 5.182 0 0 1-5.182 5.182H66.182c-8.284 0-15 6.716-15 15h0c0 8.284 6.716 15 15 15h164.19c16.569 0 30-13.431 30-30V378.18h-30zM404.663 120.585h0c-9.723-7.691-23.835-6.068-31.558 3.629l-39.417 49.492-71.182 30.262c-10.052 4.274-14.737 15.887-10.463 25.939h0c4.274 10.052 15.887 14.737 25.939 10.463l74.12-31.511a39.942 39.942 0 0 0 13.976-9.942l41.3-45.579c8.742-9.647 7.496-24.677-2.715-32.753z" style="stroke-width:15;stroke-linecap:round;stroke-linejoin:round;stroke-miterlimit:10;" fill="none" stroke="#11b76b" stroke-width="15" stroke-linecap="round" stroke-linejoin="round" stroke-miterlimit="10" data-original="#000000" class="" opacity="1"></path><path d="M260.372 239.306v2.646h-37.924V222.99c0-10.472 8.489-18.962 18.962-18.962h0a18.9 18.9 0 0 1 13.408 5.554M321.462 258.081l-7.294 100.466c-.454 6.247 4.492 11.564 10.755 11.564h94.095c6.247 0 11.187-5.291 10.758-11.523l-15.402-223.944c-1.016-14.776-13.299-26.243-28.11-26.243h-13.891c-22.57 0-41.309 17.428-42.943 39.938l-2.036 28.044" style="stroke-width:15;stroke-linecap:round;stroke-linejoin:round;stroke-miterlimit:10;" fill="none" stroke="#11b76b" stroke-width="15" stroke-linecap="round" stroke-linejoin="round" stroke-miterlimit="10" data-original="#000000" class="" opacity="1"></path></g></svg>