<svg xmlns="http://www.w3.org/2000/svg" version="1.1" xmlns:xlink="http://www.w3.org/1999/xlink" xmlns:svgjs="http://svgjs.com/svgjs" width="512" height="512" x="0" y="0" viewBox="0 0 682.667 682.667" style="enable-background:new 0 0 512 512" xml:space="preserve" class=""><g><defs><clipPath id="a" clipPathUnits="userSpaceOnUse"><path d="M0 512h512V0H0Z" fill="#11b76b" data-original="#000000" opacity="1"></path></clipPath></defs><g clip-path="url(#a)" transform="matrix(1.33333 0 0 -1.33333 0 682.667)"><path d="M0 0c-.064-25.225.936-50.225-.064-75.225-2-25-21-46-46-50-10-1-21-1-31.192-.699" style="stroke-width:15;stroke-linecap:round;stroke-linejoin:round;stroke-miterlimit:10;stroke-dasharray:none;stroke-opacity:1" transform="translate(449.065 155.225)" fill="none" stroke="#11b76b" stroke-width="15" stroke-linecap="round" stroke-linejoin="round" stroke-miterlimit="10" stroke-dasharray="none" stroke-opacity="" data-original="#000000" opacity="1"></path><path d="M0 0h39.823c11.893 0 21.534 9.641 21.534 21.534 0 11.892-9.641 21.533-21.534 21.533H0c-11.893 0-21.534-9.641-21.534-21.533C-21.534 9.641-11.893 0 0 0Z" style="stroke-width:15;stroke-linecap:round;stroke-linejoin:round;stroke-miterlimit:10;stroke-dasharray:none;stroke-opacity:1" transform="translate(310.452 7.5)" fill="none" stroke="#11b76b" stroke-width="15" stroke-linecap="round" stroke-linejoin="round" stroke-miterlimit="10" stroke-dasharray="none" stroke-opacity="" data-original="#000000" opacity="1"></path><path d="M0 0c19.449 14.912 41.296 26.662 64.485 34.602 24.193 8.284 49.76 12.37 75.327 12.147 19.422-.17 38.813-2.821 57.555-7.927" style="stroke-width:15;stroke-linecap:round;stroke-linejoin:round;stroke-miterlimit:10;stroke-dasharray:none;stroke-opacity:1" transform="translate(118.276 457.743)" fill="none" stroke="#11b76b" stroke-width="15" stroke-linecap="round" stroke-linejoin="round" stroke-miterlimit="10" stroke-dasharray="none" stroke-opacity="" data-original="#000000" opacity="1"></path><path d="M0 0c-.089 53.645 18.911 107.645 54.841 147.898" style="stroke-width:15;stroke-linecap:round;stroke-linejoin:round;stroke-miterlimit:10;stroke-dasharray:none;stroke-opacity:1" transform="translate(29.089 277.355)" fill="none" stroke="#11b76b" stroke-width="15" stroke-linecap="round" stroke-linejoin="round" stroke-miterlimit="10" stroke-dasharray="none" stroke-opacity="" data-original="#000000" opacity="1"></path><path d="M0 0a194.02 194.02 0 0 1-32.844 2.788c-106.789 0-193.668-86.94-193.668-193.804v-140.292" style="stroke-width:15;stroke-linecap:round;stroke-linejoin:round;stroke-miterlimit:10;stroke-dasharray:none;stroke-opacity:1" transform="translate(288.918 468.37)" fill="none" stroke="#11b76b" stroke-width="15" stroke-linecap="round" stroke-linejoin="round" stroke-miterlimit="10" stroke-dasharray="none" stroke-opacity="" data-original="#000000" opacity="1"></path><path d="M0 0c-.819 25.502-6.586 49.775-16.369 71.888" style="stroke-width:15;stroke-linecap:round;stroke-linejoin:round;stroke-miterlimit:10;stroke-dasharray:none;stroke-opacity:1" transform="translate(449.64 283.666)" fill="none" stroke="#11b76b" stroke-width="15" stroke-linecap="round" stroke-linejoin="round" stroke-miterlimit="10" stroke-dasharray="none" stroke-opacity="" data-original="#000000" opacity="1"></path><path d="M0 0c20.021-33.203 31.796-71.92 32.463-113.291" style="stroke-width:15;stroke-linecap:round;stroke-linejoin:round;stroke-miterlimit:10;stroke-dasharray:none;stroke-opacity:1" transform="translate(450.566 394.363)" fill="none" stroke="#11b76b" stroke-width="15" stroke-linecap="round" stroke-linejoin="round" stroke-miterlimit="10" stroke-dasharray="none" stroke-opacity="" data-original="#000000" opacity="1"></path><path d="M0 0h-12.503c-23.419 0-42.404-18.984-42.404-42.403v-72.473c0-23.419 18.985-42.403 42.404-42.403H.529" style="stroke-width:15;stroke-linecap:round;stroke-linejoin:round;stroke-miterlimit:10;stroke-dasharray:none;stroke-opacity:1" transform="translate(62.407 281.073)" fill="none" stroke="#11b76b" stroke-width="15" stroke-linecap="round" stroke-linejoin="round" stroke-miterlimit="10" stroke-dasharray="none" stroke-opacity="" data-original="#000000" opacity="1"></path><path d="M0 0v0c11.507 0 20.836-9.329 20.836-20.836v-157.316c0-11.508-9.329-20.836-20.836-20.836-11.508 0-20.836 9.328-20.836 20.836v157.316C-20.836-9.329-11.508 0 0 0Z" style="stroke-width:15;stroke-linecap:round;stroke-linejoin:round;stroke-miterlimit:10;stroke-dasharray:none;stroke-opacity:1" transform="translate(83.772 303.215)" fill="none" stroke="#11b76b" stroke-width="15" stroke-linecap="round" stroke-linejoin="round" stroke-miterlimit="10" stroke-dasharray="none" stroke-opacity="" data-original="#000000" opacity="1"></path><path d="M0 0h13.032c23.419 0 42.404 18.985 42.404 42.403v72.473c0 23.419-18.985 42.404-42.404 42.404H0" style="stroke-width:15;stroke-linecap:round;stroke-linejoin:round;stroke-miterlimit:10;stroke-dasharray:none;stroke-opacity:1" transform="translate(449.065 126.368)" fill="none" stroke="#11b76b" stroke-width="15" stroke-linecap="round" stroke-linejoin="round" stroke-miterlimit="10" stroke-dasharray="none" stroke-opacity="" data-original="#000000" opacity="1"></path><path d="M0 0v84.404c0 11.508-9.329 20.836-20.836 20.836v0c-11.508 0-20.836-9.328-20.836-20.836V-72.912c0-11.507 9.328-20.836 20.836-20.836v0C-9.329-93.748 0-84.419 0-72.912v32.985" style="stroke-width:15;stroke-linecap:round;stroke-linejoin:round;stroke-miterlimit:10;stroke-dasharray:none;stroke-opacity:1" transform="translate(449.065 197.975)" fill="none" stroke="#11b76b" stroke-width="15" stroke-linecap="round" stroke-linejoin="round" stroke-miterlimit="10" stroke-dasharray="none" stroke-opacity="" data-original="#000000" opacity="1"></path><path d="M0 0c58.057 0 105.121-47.056 105.121-105.102 0-30.606-13.089-58.153-33.971-77.361v-27.712l-25.066 10.589C32.168-206.384 16.531-210.204 0-210.204c-58.057 0-105.121 47.056-105.121 105.102C-105.121-47.056-58.057 0 0 0Z" style="stroke-width:15;stroke-linecap:round;stroke-linejoin:round;stroke-miterlimit:10;stroke-dasharray:none;stroke-opacity:1" transform="translate(256 306.755)" fill="none" stroke="#11b76b" stroke-width="15" stroke-linecap="round" stroke-linejoin="round" stroke-miterlimit="10" stroke-dasharray="none" stroke-opacity="" data-original="#000000" opacity="1"></path><path d="M0 0h40.121" style="stroke-width:15;stroke-linecap:round;stroke-linejoin:round;stroke-miterlimit:10;stroke-dasharray:none;stroke-opacity:1" transform="translate(235.94 243.72)" fill="none" stroke="#11b76b" stroke-width="15" stroke-linecap="round" stroke-linejoin="round" stroke-miterlimit="10" stroke-dasharray="none" stroke-opacity="" data-original="#000000" opacity="1"></path><path d="M0 0h40.121" style="stroke-width:15;stroke-linecap:round;stroke-linejoin:round;stroke-miterlimit:10;stroke-dasharray:none;stroke-opacity:1" transform="translate(235.94 159.586)" fill="none" stroke="#11b76b" stroke-width="15" stroke-linecap="round" stroke-linejoin="round" stroke-miterlimit="10" stroke-dasharray="none" stroke-opacity="" data-original="#000000" opacity="1"></path><path d="M0 0h83.05" style="stroke-width:15;stroke-linecap:round;stroke-linejoin:round;stroke-miterlimit:10;stroke-dasharray:none;stroke-opacity:1" transform="translate(214.475 201.653)" fill="none" stroke="#11b76b" stroke-width="15" stroke-linecap="round" stroke-linejoin="round" stroke-miterlimit="10" stroke-dasharray="none" stroke-opacity="" data-original="#000000" opacity="1"></path><path d="M0 0c-49.395 0-89.437-40.035-89.437-89.421 0-26.04 11.136-49.477 28.902-65.819v-23.578l21.326 9.01c11.84-5.784 25.144-9.034 39.209-9.034 49.395 0 89.437 40.035 89.437 89.421C89.437-40.035 49.395 0 0 0Z" style="stroke-width:15;stroke-linecap:round;stroke-linejoin:round;stroke-miterlimit:10;stroke-dasharray:none;stroke-opacity:1" transform="translate(363.544 504.5)" fill="none" stroke="#11b76b" stroke-width="15" stroke-linecap="round" stroke-linejoin="round" stroke-miterlimit="10" stroke-dasharray="none" stroke-opacity="" data-original="#000000" opacity="1"></path><path d="M0 0c0 1.162.081 2.304.237 3.422 1.687 12.093 12.189 21.363 24.805 21.109 12.762-.258 23.333-10.478 23.995-23.226.734-14.126-10.518-25.841-24.501-25.841v-25.656" style="stroke-width:15;stroke-linecap:round;stroke-linejoin:round;stroke-miterlimit:10;stroke-dasharray:none;stroke-opacity:1" transform="translate(339.009 440.286)" fill="none" stroke="#11b76b" stroke-width="15" stroke-linecap="round" stroke-linejoin="round" stroke-miterlimit="10" stroke-dasharray="none" stroke-opacity="" data-original="#000000" opacity="1"></path><path d="M0 0c9.652 0 9.667 15 0 15-9.652 0-9.668-15 0-15" style="fill-opacity:1;fill-rule:nonzero;stroke:none" transform="translate(363.544 356.846)" fill="#11b76b" data-original="#000000" opacity="1"></path></g></g></svg>