<svg xmlns="http://www.w3.org/2000/svg" version="1.1" xmlns:xlink="http://www.w3.org/1999/xlink" xmlns:svgjs="http://svgjs.com/svgjs" width="512" height="512" x="0" y="0" viewBox="0 0 24 24" style="enable-background:new 0 0 512 512" xml:space="preserve"><g><path d="M7.629 16.079v2.072a.75.75 0 0 1-1.5 0v-2.072a.75.75 0 0 1 1.5 0zM12 13.256a.75.75 0 0 0-.75.75v4.145a.75.75 0 0 0 1.5 0v-4.145a.75.75 0 0 0-.75-.75zm5.121-2.072a.75.75 0 0 0-.75.75v6.217a.75.75 0 0 0 1.5 0v-6.217a.75.75 0 0 0-.75-.75zm.713-5.521a.867.867 0 0 0-.035-.126.713.713 0 0 0-.075-.11.7.7 0 0 0-.1-.125c-.007-.007-.01-.016-.018-.023a.733.733 0 0 0-.091-.051.681.681 0 0 0-.14-.077.7.7 0 0 0-.15-.031.778.778 0 0 0-.107-.021H14.2a.75.75 0 0 0 0 1.5h1.247A18.076 18.076 0 0 1 6.7 11.705a.75.75 0 0 0 .181 1.478.723.723 0 0 0 .183-.023 19.549 19.549 0 0 0 9.307-5.36v.973a.75.75 0 0 0 1.5 0V5.849a.28.28 0 0 0-.006-.028.775.775 0 0 0-.031-.158zM22.75 9v6c0 5.433-2.318 7.75-7.75 7.75H9c-5.432 0-7.75-2.317-7.75-7.75V9c0-5.433 2.318-7.75 7.75-7.75h6c5.432 0 7.75 2.317 7.75 7.75zm-1.5 0c0-4.614-1.636-6.25-6.25-6.25H9C4.386 2.75 2.75 4.386 2.75 9v6c0 4.614 1.636 6.25 6.25 6.25h6c4.614 0 6.25-1.636 6.25-6.25z" data-name="1" fill="#11b76b" data-original="#000000" opacity="1"></path></g></svg>