<svg xmlns="http://www.w3.org/2000/svg" version="1.1" xmlns:xlink="http://www.w3.org/1999/xlink" xmlns:svgjs="http://svgjs.com/svgjs" width="512" height="512" x="0" y="0" viewBox="0 0 512 512" style="enable-background:new 0 0 512 512" xml:space="preserve" class=""><g><path fill="#1fd879" d="M502.766 338.554c-7.647-3.186-16.43.43-19.616 8.077l-6.236 14.969-6.238-14.969c-3.187-7.647-11.969-11.264-19.615-8.077s-11.263 11.969-8.076 19.615l18.93 45.43V448.8c0 8.284 6.716 15 15 15s15-6.716 15-15v-45.199l18.93-45.432c3.183-7.647-.433-16.429-8.079-19.615zM419.981 422.868a47.7 47.7 0 0 0 5.904-5.003c8.78-8.768 13.815-20.917 13.815-33.332 0-12.603-4.906-24.442-13.809-33.333-8.9-8.899-20.735-13.8-33.325-13.8H376.5c-8.284 0-15 6.716-15 15v96.4c0 8.284 6.716 15 15 15s15-6.716 15-15v-11.987l22.594 22.593c5.857 5.858 15.355 5.858 21.213 0s5.858-15.355 0-21.213zm-15.302-26.223a17.016 17.016 0 0 1-12.112 5.022H391.5V367.4h1.066c4.577 0 8.879 1.781 12.119 5.021a17.004 17.004 0 0 1 5.015 12.112c0 4.51-1.828 8.923-5.021 12.112z" data-original="#1fd879" class="" opacity="1"></path><path fill="#aae745" d="M15 337.4c-8.284 0-15 6.716-15 15v96.4c0 8.284 6.716 15 15 15 34.849 0 63.2-28.351 63.2-63.2v-.016c0-34.84-28.344-63.184-63.2-63.184zm33.2 63.2c0 12.912-7.41 24.126-18.2 29.614v-59.235c10.791 5.483 18.2 16.694 18.2 29.604zM119.434 367.4c8.284 0 15-6.716 15-15s-6.716-15-15-15h-16.067c-8.284 0-15 6.716-15 15v96.4c0 8.284 6.716 15 15 15h16.067c8.284 0 15-6.716 15-15s-6.716-15-15-15h-1.067v-18.2h1.067c8.284 0 15-6.716 15-15s-6.716-15-15-15h-1.067v-18.2z" data-original="#aae745" class="" opacity="1"></path><path fill="#1fd879" d="M336.333 367.4c8.284 0 15-6.716 15-15s-6.716-15-15-15h-16.066c-8.284 0-15 6.716-15 15v96.4c0 8.284 6.716 15 15 15h16.066c8.284 0 15-6.716 15-15s-6.716-15-15-15h-1.066v-18.2h1.066c8.284 0 15-6.716 15-15s-6.716-15-15-15h-1.066v-18.2z" data-original="#1fd879" class="" opacity="1"></path><g fill="#aae745"><path d="M174.6 435.512V352.4c0-8.284-6.716-15-15-15s-15 6.716-15 15v96.4c0 8.284 6.716 15 15 15h8.034c8.284 0 15-6.716 15-15 0-5.77-3.258-10.779-8.034-13.288zM207.8 337.4c-8.284 0-15 6.716-15 15v96.4c0 8.284 6.716 15 15 15s15-6.716 15-15v-96.4c0-8.284-6.716-15-15-15zM282.565 337.604c-8.162-1.362-15.9 4.158-17.262 12.33l-1.271 7.624-1.271-7.624c-1.361-8.172-9.101-13.692-17.262-12.33-8.172 1.362-13.692 9.09-12.33 17.262l16.066 96.4a15 15 0 0 0 14.796 12.534 15 15 0 0 0 14.796-12.534l16.066-96.4c1.365-8.172-4.156-15.9-12.328-17.262z" fill="#aae745" data-original="#aae745" class="" opacity="1"></path></g><path fill="#ff3838" d="M74.985 319.2a15 15 0 0 1-13.639-8.757c-.62-1.355-15.363-33.633-30.355-72.629C10.427 184.323 0 145.753 0 123.177 0 81.834 33.639 48.2 74.985 48.2c41.342 0 74.977 33.635 74.977 74.977 0 22.576-10.426 61.146-30.987 114.637-14.989 38.996-29.729 71.274-30.35 72.629a15 15 0 0 1-13.64 8.757z" data-original="#ff3838" class=""></path><path fill="#e20059" d="M74.985 48.2c41.342 0 74.977 33.635 74.977 74.977 0 22.576-10.426 61.146-30.987 114.637-14.989 38.996-29.729 71.274-30.35 72.629a15 15 0 0 1-13.64 8.757z" data-original="#e20059" class=""></path><circle cx="74.985" cy="123.177" r="15" fill="#f0f5ff" fill-rule="evenodd" clip-rule="evenodd" data-original="#f0f5ff"></circle><path fill="#d8f1fb" fill-rule="evenodd" d="M74.985 138.177c8.272 0 15-6.72 15-15s-6.727-15-15-15z" clip-rule="evenodd" data-original="#d8f1fb" class=""></path><path fill="#e20059" d="M448.8 174.6c8.284 0 15-6.716 15-15v-33.2H482v33.2c0 8.284 6.716 15 15 15s15-6.716 15-15V63.2c0-8.284-6.716-15-15-15s-15 6.716-15 15v33.2h-18.2V63.2c0-8.284-6.716-15-15-15s-15 6.716-15 15v96.4c0 8.284 6.716 15 15 15z" data-original="#e20059" class=""></path><path fill="#ff3838" d="M272.066 174.6c8.284 0 15-6.716 15-15v-17.133h18.2V159.6c0 8.284 6.716 15 15 15s15-6.716 15-15V87.3c0-21.56-17.54-39.1-39.1-39.1-21.561 0-39.101 17.54-39.101 39.1v72.3c.001 8.284 6.717 15 15.001 15zm15-87.3c0-5.018 4.082-9.1 9.101-9.1 5.018 0 9.1 4.082 9.1 9.1v25.167h-18.2V87.3z" data-original="#ff3838" class=""></path><path fill="#e20059" d="M384.533 126.4c5.019 0 9.101 4.083 9.101 9.1 0 4.946-3.997 9.1-9.101 9.1H376.5c-8.284 0-15 6.716-15 15s6.716 15 15 15h8.033c21.408 0 39.101-17.304 39.101-39.1 0-21.56-17.54-39.1-39.101-39.1-5.018 0-9.1-4.083-9.1-9.1 0-5.022 4.053-9.1 9.1-9.1h8.033c8.284 0 15-6.716 15-15s-6.716-15-15-15h-8.033c-21.608 0-39.1 17.475-39.1 39.1.001 21.56 17.541 39.1 39.1 39.1z" data-original="#e20059" class=""></path><path fill="#c1126b" d="M376.5 319.2c21.56 0 39.1-17.54 39.1-39.1v-48.2c0-21.56-17.54-39.1-39.1-39.1s-39.1 17.54-39.1 39.1v48.2c0 21.56 17.54 39.1 39.1 39.1zm-9.1-87.3c0-5.018 4.082-9.1 9.1-9.1s9.1 4.083 9.1 9.1v48.2c0 5.018-4.082 9.1-9.1 9.1s-9.1-4.083-9.1-9.1zM448.8 319.2c8.284 0 15-6.716 15-15v-32.859l19.784 39.567c1.355 2.711 6.953 10.229 16.862 7.891A15.001 15.001 0 0 0 512 304.2v-96.4c0-8.284-6.716-15-15-15s-15 6.716-15 15v32.859l-19.784-39.567A15 15 0 0 0 433.8 207.8v96.4c0 8.284 6.716 15 15 15z" data-original="#c1126b" class=""></path><path fill="#ff3838" d="M207.8 174.6c21.561 0 39.101-17.541 39.101-39.1 0-8.284-6.716-15-15-15s-15 6.716-15 15c0 5.018-4.082 9.1-9.101 9.1-5.018 0-9.1-4.083-9.1-9.1V87.3c0-5.018 4.082-9.1 9.116-9.1 5.056 0 9.084 4.091 9.084 9.084v.016c0 8.284 6.716 14.992 15 14.992s15-6.724 15-15.008c0-21.554-17.416-39.084-39.1-39.084-21.56 0-39.1 17.54-39.1 39.1v48.2c0 21.56 17.54 39.1 39.1 39.1z" data-original="#ff3838" class=""></path><path fill="#e20059" d="M305.267 87.3v25.167h-9.1v30h9.1V159.6c0 8.284 6.716 15 15 15s15-6.716 15-15V87.3c0-21.56-17.54-39.1-39.1-39.1v30c5.018 0 9.1 4.082 9.1 9.1z" data-original="#e20059" class=""></path></g></svg>