<svg xmlns="http://www.w3.org/2000/svg" version="1.1" xmlns:xlink="http://www.w3.org/1999/xlink" xmlns:svgjs="http://svgjs.com/svgjs" width="512" height="512" x="0" y="0" viewBox="0 0 64 64" style="enable-background:new 0 0 512 512" xml:space="preserve" class=""><g><path d="M18 41h-8a4 4 0 0 0 0 8h8a4 4 0 0 0 0-8Zm-3.618 2 2 4h-2.764l-2-4ZM8 45a2 2 0 0 1 1.428-1.907L11.382 47H10a2 2 0 0 1-2-2Zm10.572 1.907L16.618 43H18a1.995 1.995 0 0 1 .572 3.907Z" fill="#272727" data-original="#000000" opacity="1" class=""></path><path d="M58 33h2a3 3 0 0 0 0-6h-2a3 3 0 0 0-2.8 1.963l-1.622 1.3a17.337 17.337 0 0 0-8.112-7.687 15 15 0 1 0-26.924 0 17.337 17.337 0 0 0-8.112 7.687l-1.63-1.3A3 3 0 0 0 6 27H4a3 3 0 0 0 0 6h2.032l1.306 2.177A8.012 8.012 0 0 0 1 43v8a7.039 7.039 0 0 0 1.4 4.2A6.931 6.931 0 0 0 4 56.729V59a4 4 0 0 0 4 4h2a4 4 0 0 0 4-4v-1h36v1a4 4 0 0 0 4 4h2a4 4 0 0 0 4-4v-2.27a6.972 6.972 0 0 0 1.6-1.53A7.045 7.045 0 0 0 63 51v-8a8.012 8.012 0 0 0-6.338-7.826L57.968 33H58Zm0-4h2a1 1 0 0 1 0 2h-2a1 1 0 0 1 0-2ZM32 3a13 13 0 1 1-13 13A13.015 13.015 0 0 1 32 3Zm-9.891 24.248a14.912 14.912 0 0 0 19.781 0 8.959 8.959 0 0 1 5.959 4.687A1.426 1.426 0 0 1 46.573 34H17.427a1.426 1.426 0 0 1-1.276-2.065 8.959 8.959 0 0 1 5.958-4.687ZM3 30a1 1 0 0 1 1-1h2a1 1 0 0 1 0 2H4a1 1 0 0 1-1-1Zm9 29a2 2 0 0 1-2 2H8a2 2 0 0 1-2-2v-1.307A6.941 6.941 0 0 0 8 58h4Zm-.64-3A9.04 9.04 0 0 1 17 54h30a9.04 9.04 0 0 1 5.64 2ZM58 59a2 2 0 0 1-2 2h-2a2 2 0 0 1-2-2v-1h4a6.941 6.941 0 0 0 2-.307Zm-3.87-22.507A1 1 0 0 0 55 37a6.006 6.006 0 0 1 6 6v8a5 5 0 0 1-5 5h-.539A11.043 11.043 0 0 0 47 52H17a11.043 11.043 0 0 0-8.461 4H8a5 5 0 0 1-5-5v-8a6.006 6.006 0 0 1 6-6 1 1 0 0 0 .857-1.515l-1.925-3.209a3 3 0 0 0 .709-.882l1.522 1.217a1 1 0 0 0 1.543-.387 15.3 15.3 0 0 1 7.825-7.9 15.017 15.017 0 0 0 .988 1.31 10.97 10.97 0 0 0-6.157 5.4A3.427 3.427 0 0 0 17.427 36h29.146a3.427 3.427 0 0 0 3.065-4.96 10.974 10.974 0 0 0-6.157-5.4 15.22 15.22 0 0 0 .988-1.31 15.3 15.3 0 0 1 7.825 7.9 1 1 0 0 0 1.543.387l1.522-1.217a3 3 0 0 0 .709.882l-1.925 3.209a1 1 0 0 0-.013 1.002Z" fill="#272727" data-original="#000000" opacity="1" class=""></path><path d="M46 41a4 4 0 0 0 0 8h8a4 4 0 0 0 0-8Zm6.382 2-2 4h-2.764l2-4ZM44 45a2 2 0 0 1 2-2h1.382l-1.954 3.907A2 2 0 0 1 44 45Zm12 0a2 2 0 0 1-2 2h-1.382l1.954-3.907A2 2 0 0 1 56 45ZM27.047 25.2l1.074-1.074a8.5 8.5 0 0 0 .879.365V26a1 1 0 0 0 1 1h4a1 1 0 0 0 1-1v-1.512a8.5 8.5 0 0 0 .879-.365l1.074 1.077a1 1 0 0 0 1.414 0l2.83-2.83a1 1 0 0 0 0-1.414l-1.073-1.074a8.97 8.97 0 0 0 .365-.882H42a1 1 0 0 0 1-1v-4a1 1 0 0 0-1-1h-1.511a8.97 8.97 0 0 0-.365-.879l1.076-1.074a1 1 0 0 0 0-1.414L38.367 6.8a1.029 1.029 0 0 0-1.414 0l-1.074 1.077A8.5 8.5 0 0 0 35 7.512V6a1 1 0 0 0-1-1h-4a1 1 0 0 0-1 1v1.512a8.5 8.5 0 0 0-.879.365L27.047 6.8a1 1 0 0 0-1.414 0L22.8 9.633a1 1 0 0 0 0 1.414l1.073 1.074a8.97 8.97 0 0 0-.365.879H22a1 1 0 0 0-1 1v4a1 1 0 0 0 1 1h1.511a8.97 8.97 0 0 0 .365.879L22.8 20.953a1 1 0 0 0 0 1.414l2.83 2.83a1.029 1.029 0 0 0 1.417.003Zm-1.081-5.654a6.777 6.777 0 0 1-.748-1.795A1 1 0 0 0 24.25 17H23v-2h1.25a1 1 0 0 0 .968-.748 6.777 6.777 0 0 1 .748-1.795 1 1 0 0 0-.149-1.224l-.893-.893 1.416-1.416.893.893a1 1 0 0 0 1.224.15 6.771 6.771 0 0 1 1.795-.749A1 1 0 0 0 31 8.25V7h2v1.25a1 1 0 0 0 .748.968 6.771 6.771 0 0 1 1.8.749 1 1 0 0 0 1.224-.15l.893-.893 1.416 1.416-.893.893a1 1 0 0 0-.149 1.224 6.777 6.777 0 0 1 .748 1.8 1 1 0 0 0 .963.743H41v2h-1.25a1 1 0 0 0-.968.748 6.777 6.777 0 0 1-.748 1.795 1 1 0 0 0 .149 1.224l.893.893-1.416 1.416-.893-.893a1 1 0 0 0-1.224-.15 6.771 6.771 0 0 1-1.8.749 1 1 0 0 0-.743.968V25h-2v-1.25a1 1 0 0 0-.748-.968 6.771 6.771 0 0 1-1.795-.749 1 1 0 0 0-1.224.15l-.893.893-1.416-1.416.893-.893a1 1 0 0 0 .149-1.224Z" fill="#272727" data-original="#000000" opacity="1" class=""></path><path d="M32 20a4 4 0 1 0-4-4 4 4 0 0 0 4 4Zm0-6a2 2 0 1 1-2 2 2 2 0 0 1 2-2Z" fill="#272727" data-original="#000000" opacity="1" class=""></path></g></svg>