<svg xmlns="http://www.w3.org/2000/svg" version="1.1" xmlns:xlink="http://www.w3.org/1999/xlink" xmlns:svgjs="http://svgjs.com/svgjs" width="512" height="512" x="0" y="0" viewBox="0 0 512 512" style="enable-background:new 0 0 512 512" xml:space="preserve" class=""><g><path d="M288.983 405.687 256 388.346l-32.983 17.341a10 10 0 0 1-14.51-10.542l6.3-36.728-26.685-26.011a10 10 0 0 1 5.543-17.058l36.876-5.357 16.491-33.416a10.001 10.001 0 0 1 17.936 0l16.491 33.416 36.876 5.357a10.003 10.003 0 0 1 5.543 17.058l-26.685 26.011 6.3 36.728a10.001 10.001 0 0 1-14.51 10.542zm-28.33-37.49 19.702 10.358-3.764-21.938a10.005 10.005 0 0 1 2.876-8.852l15.94-15.537-22.027-3.2a10.004 10.004 0 0 1-7.53-5.471l-9.85-19.96-9.851 19.96a10.004 10.004 0 0 1-7.53 5.471l-22.027 3.2 15.94 15.537a10.004 10.004 0 0 1 2.876 8.852l-3.764 21.938 19.702-10.358a9.998 9.998 0 0 1 9.307 0z" fill="#11b76b" data-original="#000000" class="" opacity="1"></path><path d="M256 511.001c-93.738 0-170-76.262-170-170s76.262-170 170-170 170 76.262 170 170c0 35.202-10.675 68.987-30.87 97.703-3.176 4.517-9.412 5.605-13.933 2.427-4.518-3.177-5.604-9.415-2.427-13.933 17.814-25.329 27.23-55.135 27.23-86.197 0-82.71-67.29-150-150-150s-150 67.29-150 150 67.29 150 150 150c35.801 0 70.47-12.821 97.621-36.102 4.192-3.595 10.505-3.111 14.101 1.083 3.595 4.192 3.11 10.505-1.083 14.101-30.774 26.387-70.066 40.918-110.639 40.918z" fill="#11b76b" data-original="#000000" class="" opacity="1"></path><path d="M256 471.001c-71.683 0-130-58.317-130-130s58.317-130 130-130 130 58.317 130 130-58.317 130-130 130zm0-240c-60.654 0-110 49.346-110 110s49.346 110 110 110 110-49.346 110-110-49.346-110-110-110zM338.498 81.001H173.502c-5.522 0-10-4.478-10-10s4.478-10 10-10h164.996c5.522 0 10 4.478 10 10s-4.477 10-10 10zM155.602 214.629l-27-49.25c-2.655-4.843-.882-10.922 3.961-13.576 4.844-2.653 10.922-.882 13.576 3.961l27 49.25c2.655 4.843.882 10.922-3.961 13.576-4.823 2.643-10.91.904-13.576-3.961z" fill="#11b76b" data-original="#000000" class="" opacity="1"></path><path d="M342.822 218.59c-4.843-2.655-6.616-8.733-3.961-13.576L409.09 76.921l-43.015-55.92H145.924l-43.015 55.92 23.999 43.772c2.655 4.843.882 10.921-3.961 13.576-4.842 2.653-10.921.882-13.576-3.961l-27.14-49.5a9.998 9.998 0 0 1 .843-10.904l50-65A9.999 9.999 0 0 1 141 1.001h230a10 10 0 0 1 7.926 3.903l50 65a9.999 9.999 0 0 1 .843 10.904l-73.37 133.82c-2.647 4.829-8.723 6.625-13.577 3.962z" fill="#11b76b" data-original="#000000" class="" opacity="1"></path><path d="M273.264 191.296c-4.855-2.632-6.658-8.701-4.025-13.557l92.97-171.503c2.632-4.855 8.7-6.659 13.557-4.025 4.855 2.632 6.658 8.701 4.025 13.557L286.82 187.271c-2.623 4.839-8.686 6.666-13.556 4.025zM225.102 187.279 132.207 15.764c-2.631-4.856-.826-10.926 4.03-13.556 4.855-2.631 10.926-.827 13.556 4.03l92.895 171.515c2.631 4.856.826 10.926-4.03 13.556-4.856 2.631-10.926.825-13.556-4.03z" fill="#11b76b" data-original="#000000" class="" opacity="1"></path></g></svg>