<svg xmlns="http://www.w3.org/2000/svg" version="1.1" xmlns:xlink="http://www.w3.org/1999/xlink" xmlns:svgjs="http://svgjs.com/svgjs" width="512" height="512" x="0" y="0" viewBox="0 0 682.667 682.667" style="enable-background:new 0 0 512 512" xml:space="preserve" class=""><g><defs><clipPath id="a" clipPathUnits="userSpaceOnUse"><path d="M0 512h512V0H0Z" fill="#11b76b" data-original="#000000" opacity="1"></path></clipPath></defs><g clip-path="url(#a)" transform="matrix(1.33333 0 0 -1.33333 0 682.667)"><path d="M0 0h-30v60H0c16.568 0 30-13.432 30-30C30 13.432 16.568 0 0 0Z" style="stroke-width:30;stroke-linecap:square;stroke-linejoin:miter;stroke-miterlimit:10;stroke-dasharray:none;stroke-opacity:1" transform="translate(45 256)" fill="none" stroke="#11b76b" stroke-width="30" stroke-linecap="square" stroke-linejoin="miter" stroke-miterlimit="10" stroke-dasharray="none" stroke-opacity="" data-original="#000000" opacity="1"></path><path d="M0 0h30c16.568 0 30-13.432 30-30 0-16.568-13.432-30-30-30H0Z" style="stroke-width:30;stroke-linecap:square;stroke-linejoin:miter;stroke-miterlimit:10;stroke-dasharray:none;stroke-opacity:1" transform="translate(15 256)" fill="none" stroke="#11b76b" stroke-width="30" stroke-linecap="square" stroke-linejoin="miter" stroke-miterlimit="10" stroke-dasharray="none" stroke-opacity="" data-original="#000000" opacity="1"></path><path d="M0 0c0-16.568-13.432-30-30-30h-30v60h30C-13.432 30 0 16.568 0 0Z" style="stroke-width:30;stroke-linecap:square;stroke-linejoin:miter;stroke-miterlimit:10;stroke-dasharray:none;stroke-opacity:1" transform="translate(181 286)" fill="none" stroke="#11b76b" stroke-width="30" stroke-linecap="square" stroke-linejoin="miter" stroke-miterlimit="10" stroke-dasharray="none" stroke-opacity="" data-original="#000000" opacity="1"></path><path d="M0 0v60" style="stroke-width:30;stroke-linecap:square;stroke-linejoin:miter;stroke-miterlimit:10;stroke-dasharray:none;stroke-opacity:1" transform="translate(121 196)" fill="none" stroke="#11b76b" stroke-width="30" stroke-linecap="square" stroke-linejoin="miter" stroke-miterlimit="10" stroke-dasharray="none" stroke-opacity="" data-original="#000000" opacity="1"></path><path d="m0 0-30 60h-30" style="stroke-width:30;stroke-linecap:square;stroke-linejoin:miter;stroke-miterlimit:10;stroke-dasharray:none;stroke-opacity:1" transform="translate(181 196)" fill="none" stroke="#11b76b" stroke-width="30" stroke-linecap="square" stroke-linejoin="miter" stroke-miterlimit="10" stroke-dasharray="none" stroke-opacity="" data-original="#000000" opacity="1"></path><path d="M0 0v90c0 16.568 13.432 30 30 30 16.568 0 30-13.432 30-30V0" style="stroke-width:30;stroke-linecap:square;stroke-linejoin:miter;stroke-miterlimit:10;stroke-dasharray:none;stroke-opacity:1" transform="translate(226 196)" fill="none" stroke="#11b76b" stroke-width="30" stroke-linecap="square" stroke-linejoin="miter" stroke-miterlimit="10" stroke-dasharray="none" stroke-opacity="" data-original="#000000" opacity="1"></path><path d="M0 0h60" style="stroke-width:30;stroke-linecap:square;stroke-linejoin:miter;stroke-miterlimit:10;stroke-dasharray:none;stroke-opacity:1" transform="translate(226 256)" fill="none" stroke="#11b76b" stroke-width="30" stroke-linecap="square" stroke-linejoin="miter" stroke-miterlimit="10" stroke-dasharray="none" stroke-opacity="" data-original="#000000" opacity="1"></path><path d="M0 0h-31v120H0c16.568 0 30-13.432 30-30V30C30 13.432 16.568 0 0 0Z" style="stroke-width:30;stroke-linecap:butt;stroke-linejoin:miter;stroke-miterlimit:10;stroke-dasharray:none;stroke-opacity:1" transform="translate(467 196)" fill="none" stroke="#11b76b" stroke-width="30" stroke-linecap="butt" stroke-linejoin="miter" stroke-miterlimit="10" stroke-dasharray="none" stroke-opacity="" data-original="#000000" opacity="1"></path><path d="M0 0v120h15L45 0h15v120" style="stroke-width:30;stroke-linecap:square;stroke-linejoin:miter;stroke-miterlimit:10;stroke-dasharray:none;stroke-opacity:1" transform="translate(331 196)" fill="none" stroke="#11b76b" stroke-width="30" stroke-linecap="square" stroke-linejoin="miter" stroke-miterlimit="10" stroke-dasharray="none" stroke-opacity="" data-original="#000000" opacity="1"></path><path d="M0 0a29.967 29.967 0 0 1 5.311 17.794l-.166 6.772a30 30 0 0 0 30.728 30.729l6.773-.167a30.001 30.001 0 0 1 28.728 19.195l2.438 6.322a29.999 29.999 0 0 0 40.148 16.629l6.193-2.746a30.002 30.002 0 0 1 33.887 6.742l4.671 4.906a30 30 0 0 0 43.457 0l4.671-4.906a30.002 30.002 0 0 1 33.887-6.742l6.193 2.746a29.996 29.996 0 0 0 40.148-16.629l2.438-6.322a30 30 0 0 1 28.728-19.195l6.773.167a29.998 29.998 0 0 0 30.728-30.729l-.167-6.772A29.975 29.975 0 0 1 360.879 0" style="stroke-width:30;stroke-linecap:butt;stroke-linejoin:miter;stroke-miterlimit:10;stroke-dasharray:none;stroke-opacity:1" transform="translate(75.56 376)" fill="none" stroke="#11b76b" stroke-width="30" stroke-linecap="butt" stroke-linejoin="miter" stroke-miterlimit="10" stroke-dasharray="none" stroke-opacity="" data-original="#000000" opacity="1"></path><path d="M0 0a29.975 29.975 0 0 1-5.312-17.794l.167-6.772a29.993 29.993 0 0 0-8.778-21.951 29.997 29.997 0 0 0-21.95-8.778l-6.773.167a30.002 30.002 0 0 1-28.728-19.195l-2.438-6.322a29.996 29.996 0 0 0-40.148-16.629l-6.193 2.746a30.002 30.002 0 0 1-33.887-6.742l-4.671-4.906a30 30 0 0 0-43.457 0l-4.671 4.906a30.002 30.002 0 0 1-33.887 6.742l-6.193-2.746a29.996 29.996 0 0 0-40.148 16.629l-2.438 6.322a30.001 30.001 0 0 1-28.728 19.195l-6.773-.167a30.002 30.002 0 0 0-30.728 30.729l.166 6.772A29.967 29.967 0 0 1-360.879 0" style="stroke-width:30;stroke-linecap:butt;stroke-linejoin:miter;stroke-miterlimit:10;stroke-dasharray:none;stroke-opacity:1" transform="translate(436.44 136)" fill="none" stroke="#11b76b" stroke-width="30" stroke-linecap="butt" stroke-linejoin="miter" stroke-miterlimit="10" stroke-dasharray="none" stroke-opacity="" data-original="#000000" opacity="1"></path><path d="M0 0h482" style="stroke-width:30;stroke-linecap:square;stroke-linejoin:miter;stroke-miterlimit:10;stroke-dasharray:none;stroke-opacity:1" transform="translate(15 376)" fill="none" stroke="#11b76b" stroke-width="30" stroke-linecap="square" stroke-linejoin="miter" stroke-miterlimit="10" stroke-dasharray="none" stroke-opacity="" data-original="#000000" opacity="1"></path><path d="M0 0h-482" style="stroke-width:30;stroke-linecap:square;stroke-linejoin:miter;stroke-miterlimit:10;stroke-dasharray:none;stroke-opacity:1" transform="translate(497 136)" fill="none" stroke="#11b76b" stroke-width="30" stroke-linecap="square" stroke-linejoin="miter" stroke-miterlimit="10" stroke-dasharray="none" stroke-opacity="" data-original="#000000" opacity="1"></path></g></g></svg>