<svg xmlns="http://www.w3.org/2000/svg" version="1.1" xmlns:xlink="http://www.w3.org/1999/xlink" xmlns:svgjs="http://svgjs.com/svgjs" width="512" height="512" x="0" y="0" viewBox="0 0 24 24" style="enable-background:new 0 0 512 512" xml:space="preserve" class=""><g><g data-name="Layer 2"><path fill="#11b76b" d="M17.92 5.03a1.746 1.746 0 0 0-1.455-.78h-8.93a1.746 1.746 0 0 0-1.456.78l-3.535 5.302a1.744 1.744 0 0 0-.294.97V21A1.752 1.752 0 0 0 4 22.75h16A1.752 1.752 0 0 0 21.75 21v-9.697a1.744 1.744 0 0 0-.294-.971z" data-original="#0db561" class="" opacity="1"></path><g fill="#fff"><path d="M9 19.75a.75.75 0 0 1-.53-1.28l6-6a.75.75 0 0 1 1.06 1.06l-6 6a.747.747 0 0 1-.53.22zM9.5 15.75a2.25 2.25 0 1 1 2.25-2.25 2.253 2.253 0 0 1-2.25 2.25zm0-3a.75.75 0 1 0 .75.75.751.751 0 0 0-.75-.75zM14.5 20.75a2.25 2.25 0 1 1 2.25-2.25 2.253 2.253 0 0 1-2.25 2.25zm0-3a.75.75 0 1 0 .75.75.751.751 0 0 0-.75-.75z" fill="#ffffff" data-original="#ffffff" class=""></path></g><path fill="#1c5e3f" d="M14 8.75h-4a.75.75 0 0 1 0-1.5h4a.75.75 0 0 1 0 1.5z" data-original="#1c5e3f" class="" opacity="1"></path><path fill="#1c5e3f" d="M12 8.75a.75.75 0 0 1-.75-.75V5.369a4.123 4.123 0 0 1 4.118-4.119h.83a4.11 4.11 0 0 1 3.426 1.834 2.615 2.615 0 0 0 2.179 1.166H22a.75.75 0 0 1 0 1.5h-.197a4.11 4.11 0 0 1-3.427-1.834 2.615 2.615 0 0 0-2.179-1.166h-.829a2.622 2.622 0 0 0-2.618 2.619V8a.75.75 0 0 1-.75.75z" data-original="#1c5e3f" class="" opacity="1"></path></g></g></svg>