<svg xmlns="http://www.w3.org/2000/svg" version="1.1" xmlns:xlink="http://www.w3.org/1999/xlink" xmlns:svgjs="http://svgjs.com/svgjs" width="512" height="512" x="0" y="0" viewBox="0 0 512 512" style="enable-background:new 0 0 512 512" xml:space="preserve" class=""><g><path d="M0 504.438h512M486 121.062H346l20-103.374h100zM416 121.062v106.086M448.667 122.062v74.063M181 7.562h67.125v166.563h-240V7.562h157.542" style="stroke-width:15;stroke-miterlimit:10;" fill="none" stroke="#272727" stroke-width="15" stroke-miterlimit="10" data-original="#000000" opacity="1" class=""></path><path d="M77.844 3.844h100.562v174H77.844z" style="stroke-width:15;stroke-miterlimit:10;" transform="rotate(90 128.125 90.844)" fill="none" stroke="#272727" stroke-width="15" stroke-miterlimit="10" data-original="#000000" opacity="1" class=""></path><path d="M41.125 98.729s27.208-31.208 68.542-22.604 72.458 40.5 105.458 10.552V40.562h-174v58.167zM255.954 291.062v-42.469c0-16.569-13.431-30-30-30h-105.96c-20.7 0-37.981 15.793-39.839 36.41l-4.763 52.85a29.869 29.869 0 0 1 4.133 11.882l7.92 63.858h337.009l7.991-63.893a29.886 29.886 0 0 1 4.106-11.813l-4.809-52.915c-1.872-20.604-19.147-36.38-39.836-36.38H286.024c-16.578 0-30.013 13.446-30 30.024M255.954 363.656V306" style="stroke-width:15;stroke-miterlimit:10;" fill="none" stroke="#272727" stroke-width="15" stroke-miterlimit="10" data-original="#000000" opacity="1" class=""></path><path d="M166.125 443.594H34.428L19.983 327.121c-2.039-16.443 9.637-31.425 26.08-33.464 16.443-2.039 31.425 9.637 33.464 26.08l7.92 63.858h337.009l7.991-63.892c2.056-16.44 17.05-28.101 33.491-26.045 16.441 2.056 28.102 17.05 26.045 33.491L477.42 443.596H181.667" style="stroke-width:15;stroke-miterlimit:10;" fill="none" stroke="#272727" stroke-width="15" stroke-miterlimit="10" data-original="#000000" opacity="1" class=""></path><path d="M255.954 383.594v-19.938c0-11.046-8.954-20-20-20H105.127c-12.022 0-21.328 10.531-19.848 22.462l2.167 17.476h337.009l.777-6.214c2.24-17.906-11.722-33.723-29.768-33.723H276.062c-11.046 0-20 8.954-20 20v19.938M63.203 443.531l-20 60h37l10-30h331.594l10 30h37l-20-60M132.5 279.062h15M185.5 279.062h15M312.5 279.062h15M365.5 279.062h15M87.447 383.594v59.937M424.456 383.594v59.937" style="stroke-width:15;stroke-miterlimit:10;" fill="none" stroke="#272727" stroke-width="15" stroke-miterlimit="10" data-original="#000000" opacity="1" class=""></path></g></svg>