<svg xmlns="http://www.w3.org/2000/svg" version="1.1" xmlns:xlink="http://www.w3.org/1999/xlink" xmlns:svgjs="http://svgjs.com/svgjs" width="512" height="512" x="0" y="0" viewBox="0 0 512.006 512.006" style="enable-background:new 0 0 512 512" xml:space="preserve" class=""><g><path d="m226.746 354.739 40.926-40.926h244.319v-16.516h-24.774V165.17a24.707 24.707 0 0 0 21.859-13.114c3.113-5.838 3.774-12.536 1.841-18.869-1.932-6.334-6.21-11.536-11.627-14.41L397.066 56.438c-10.603-6.474-23.791-6.474-34.394 0l-72.579 44.279c-6.342-9.249-16.309-15.674-27.837-17.507-7.217-29.027-33.659-50.167-64.065-50.167-6.656 0-13.072 1.049-19.158 2.907-13.354-22-37.418-35.939-63.422-35.939-31.785 0-59.721 20.133-70.06 49.713C20.092 51.764 0 73.127 0 99.106c0 27.325 22.222 49.548 49.548 49.548h41.504c7.548 9.967 19.39 16.516 32.817 16.516h148.535c.041 0 .074.008.107.008v132.119h-11.677l-48.111 48.111c-12.734-8.027-25.756-14.93-39.308-20.248v-21.9c19.654-7.275 33.032-25.889 33.032-47.252 0-28.44-13.584-55.601-36.335-72.67l-4.955-3.716-4.955 3.716c-22.751 17.069-36.335 44.229-36.335 72.67 0 21.372 13.386 39.993 33.032 47.26v16.367c-13.138-3.683-26.805-5.822-41.29-5.822-22.173 0-41.579 3.559-57.806 8.374v-26.83c24.278-7.862 41.29-30.678 41.29-56.682 0-27.846-14.831-54.048-38.713-68.376L49.546 163.8l-10.834 6.499C14.831 184.625 0 210.828 0 238.674c0 26.004 17.011 48.821 41.29 56.682v32.511c-23.576 9.323-37.202 20.001-38.193 20.785l10.306 12.907c.396-.314 40.084-31.231 102.208-31.231 57.161 0 101.077 35.55 151.938 76.7 40.332 32.644 82.084 66.295 135.851 86.667.429.636.991 1.173 1.453 1.784H0v16.516h511.992v-16.516h-8.473c5.244-6.912 8.473-15.434 8.473-24.766v-8.258h-24.774c-13.551 0-25.5 6.656-33.032 16.772-7.531-10.116-19.48-16.772-33.032-16.772H396.38v8.258c0 .818.19 1.577.239 2.378-44.304-19.29-80.771-48.235-115.958-76.7H511.991v-16.516h-8.473c5.244-6.92 8.473-15.442 8.473-24.774v-8.258h-24.774c-13.551 0-25.5 6.656-33.032 16.772-7.531-10.116-19.48-16.772-33.032-16.772h-24.774v8.258c0 9.331 3.229 17.854 8.473 24.774h-33.453c5.236-6.92 8.464-15.442 8.464-24.774v-8.258h-24.774c-13.551 0-25.501 6.656-33.032 16.772-7.531-10.116-19.48-16.772-33.032-16.772h-24.774v8.258c0 9.331 3.229 17.854 8.473 24.774h-12.585c-11.105-8.835-22.178-17.316-33.393-25.136zm210.924-57.442h-49.548v-49.548h49.548zm0-66.064h-49.548v-33.032h49.548zm-66.063 0h-49.548v-33.032h49.548zm-49.548 16.516h49.548v49.548h-49.548zM371.26 70.534c2.659-1.619 5.632-2.428 8.605-2.428s5.946.809 8.605 2.428l102.646 62.579a8.195 8.195 0 0 1 4.013 4.88 8.198 8.198 0 0 1-.619 6.293 8.268 8.268 0 0 1-7.3 4.368c-1.346 0-2.684-.339-3.411-.702l-95.222-59.209c-5.368-3.336-12.048-3.336-17.432 0l-94.776 58.953c-3.832 2.064-9.067.479-11.14-3.411-1.057-1.982-1.272-4.154-.619-6.293.644-2.114 2.064-3.848 4.435-5.128zM49.548 132.138c-18.217 0-33.032-14.815-33.032-33.032 0-18.2 14.79-33.007 32.999-33.007h.05c.553.074 1.107.149 1.685.173l6.755.347 1.668-6.557c6.507-25.633 29.514-43.536 55.939-43.536 19.547 0 37.755 10.083 48.334 26.194-14.806 9.042-25.864 23.717-29.976 41.174a40.34 40.34 0 0 0-10.099-1.305c-22.767 0-41.29 18.523-41.29 41.29 0 2.824.289 5.591.834 8.258H49.548zm49.547-8.258c0-13.659 11.115-24.774 24.774-24.774 4.319 0 8.53 1.189 12.503 3.534l11.611 6.854.826-13.46c1.594-26.062 23.287-46.476 49.382-46.476 24.477 0 45.534 18.275 48.986 42.512l1.032 7.226 7.3-.132.941-.058c7.82.14 15.021 4.055 19.53 10.207l-15.112 9.216c-5.847 3.105-10.124 8.307-12.048 14.65-1.561 5.136-1.338 10.496.438 15.467H123.869c-13.659.008-24.774-11.107-24.774-24.766zm189.933 35.377 90.837-56.484 90.837 56.468v138.056h-16.516V181.686H305.543v115.611h-16.516v-138.04zm-148.643 96.75c0-21.124 9.158-41.389 24.774-55.394 15.616 14.005 24.774 34.27 24.774 55.394 0 12.197-6.491 23.048-16.516 29.076V242.91l5.838-5.847-11.685-11.668-10.669 10.678v49.011c-10.025-6.029-16.516-16.88-16.516-29.077zM16.516 238.674c0-22.082 11.759-42.85 30.695-54.213l2.337-1.404 2.337 1.404c18.935 11.363 30.695 32.132 30.695 54.213 0 16.912-10 31.909-24.774 38.903v-44.395l7.383-14.782-14.773-7.383-9.125 18.267v48.284c-14.775-6.986-24.775-21.982-24.775-38.894zm470.702 240.297h6.846c-3.411 9.612-12.593 16.516-23.362 16.516h-6.846c3.411-9.612 12.594-16.516 23.362-16.516zm-66.063 0c10.768 0 19.951 6.904 23.362 16.516h-6.846c-10.768 0-19.951-6.904-23.362-16.516zm66.063-115.611h6.846c-3.411 9.612-12.593 16.516-23.362 16.516h-6.846c3.411-9.612 12.594-16.516 23.362-16.516zm-72.909 0h6.846c10.768 0 19.951 6.904 23.362 16.516h-6.846c-10.769 0-19.952-6.904-23.362-16.516zm-59.218 0h6.846c-3.411 9.612-12.593 16.516-23.362 16.516h-6.846c3.411-9.612 12.594-16.516 23.362-16.516zm-72.909 0h6.846c10.768 0 19.951 6.904 23.362 16.516h-6.846c-10.769 0-19.952-6.904-23.362-16.516z" fill="#272727" data-original="#000000" opacity="1" class=""></path><path d="M379.865 165.17c13.659 0 24.774-11.115 24.774-24.774s-11.115-24.774-24.774-24.774-24.774 11.115-24.774 24.774 11.115 24.774 24.774 24.774zm0-33.032c4.55 0 8.258 3.708 8.258 8.258s-3.708 8.258-8.258 8.258-8.258-3.708-8.258-8.258 3.708-8.258 8.258-8.258z" fill="#272727" data-original="#000000" opacity="1" class=""></path></g></svg>