<svg xmlns="http://www.w3.org/2000/svg" version="1.1" xmlns:xlink="http://www.w3.org/1999/xlink" xmlns:svgjs="http://svgjs.com/svgjs" width="512" height="512" x="0" y="0" viewBox="0 0 32 32" style="enable-background:new 0 0 512 512" xml:space="preserve"><g><path d="M8.5 12.579a.5.5 0 0 1-.5-.5v-1.811c0-.157.073-.304.198-.398.51-.386.802-.966.802-1.591v-1.5c0-1.103-.897-2-2-2s-2 .897-2 2v1.5c0 .625.292 1.205.802 1.591a.499.499 0 0 1 .198.399v1.811a.5.5 0 1 1-1-.001v-1.575a2.966 2.966 0 0 1-1-2.225v-1.5c0-1.654 1.346-3 3-3s3 1.346 3 3v1.5c0 .856-.361 1.653-1 2.225v1.575a.5.5 0 0 1-.5.5z" fill="#11b76b" data-original="#000000" opacity="1"></path><path d="M7.503 11.229a.5.5 0 0 1-.099-.989A2.01 2.01 0 0 0 9 8.279a.5.5 0 0 1 1 0 3.011 3.011 0 0 1-2.396 2.939.496.496 0 0 1-.101.011zM10.374 13.363a.49.49 0 0 1-.197-.041l-1.874-.805a.5.5 0 0 1 .394-.919l1.874.805a.5.5 0 0 1-.197.96zM4 19.416a.493.493 0 0 1-.207-.045l-1.914-.87A1.506 1.506 0 0 1 1 17.135v-1.386c0-1.402.83-2.662 2.114-3.21l2.187-.949a.5.5 0 1 1 .398.917l-2.189.95A2.488 2.488 0 0 0 2 15.749v1.386c0 .195.115.375.293.456l1.914.87a.5.5 0 0 1-.207.955zM8.939 7.689a4.353 4.353 0 0 1-2.753-.992.5.5 0 0 1-.076-.702.5.5 0 0 1 .703-.075c.642.517 1.404.796 2.185.769A2.003 2.003 0 0 0 7 4.779c-1.103 0-2 .897-2 2v.37a.5.5 0 0 1-1 0v-.37c0-1.654 1.346-3 3-3s3 1.346 3 3v.35a.5.5 0 0 1-.421.494 3.997 3.997 0 0 1-.64.066zM26.5 12.579a.5.5 0 0 1-.5-.5v-1.811c0-.157.073-.304.198-.398.51-.386.802-.966.802-1.591v-1.5c0-1.103-.897-2-2-2s-2 .897-2 2v1.5c0 .625.292 1.205.802 1.591a.499.499 0 0 1 .198.399v1.811a.5.5 0 0 1-1 0v-1.575a2.966 2.966 0 0 1-1-2.225v-1.5c0-1.654 1.346-3 3-3s3 1.346 3 3v1.5c0 .856-.361 1.653-1 2.225v1.575a.5.5 0 0 1-.5.499z" fill="#11b76b" data-original="#000000" opacity="1"></path><path d="M25.503 11.229a.5.5 0 0 1-.099-.989A2.01 2.01 0 0 0 27 8.279a.5.5 0 0 1 1 0 3.011 3.011 0 0 1-2.396 2.939.496.496 0 0 1-.101.011zM21.773 13.3a.499.499 0 0 1-.197-.96l1.727-.742a.5.5 0 0 1 .394.919l-1.727.742a.487.487 0 0 1-.197.041zM28 19.416a.501.501 0 0 1-.207-.955l1.914-.87a.502.502 0 0 0 .293-.456v-1.386c0-1-.592-1.899-1.507-2.29l-2.192-.952a.501.501 0 0 1-.26-.658c.11-.254.4-.37.658-.259l2.189.95A3.481 3.481 0 0 1 31 15.749v1.386c0 .586-.345 1.122-.879 1.366l-1.914.87a.508.508 0 0 1-.207.045zM17.31 6.195c-1.422 0-2.902-.501-3.718-1.235a.499.499 0 1 1 .668-.743c.986.886 3.348 1.349 4.701.623a.499.499 0 1 1 .473.881c-.617.329-1.362.474-2.124.474zM15.993 15.279c-1.659 0-2.524-1.294-2.75-1.979a.5.5 0 0 1 .948-.316c.021.06.464 1.294 1.802 1.294 1.349 0 1.824-1.272 1.845-1.326a.499.499 0 0 1 .943.333c-.029.082-.72 1.994-2.788 1.994z" fill="#11b76b" data-original="#000000" opacity="1"></path><path d="M25.5 19.279a.5.5 0 0 1-.5-.5V18.5a3.496 3.496 0 0 0-2.326-3.298l-4.171-1.48A1.497 1.497 0 0 1 17.5 12.31v-1.23a.5.5 0 0 1 1 0v1.23c0 .21.135.398.335.468l4.172 1.481A4.496 4.496 0 0 1 26 18.5v.28a.5.5 0 0 1-.5.499zM6.5 19.279a.5.5 0 0 1-.5-.5v-.27c0-.312.033-.625.098-.934a4.546 4.546 0 0 1 2.904-3.317l4.162-1.46a.499.499 0 0 0 .336-.469v-1.25a.5.5 0 0 1 1 0v1.25a1.5 1.5 0 0 1-1.005 1.413l-4.159 1.459a3.536 3.536 0 0 0-2.26 2.581c-.051.24-.076.485-.076.727v.27a.5.5 0 0 1-.5.5z" fill="#11b76b" data-original="#000000" opacity="1"></path><path d="M16 12.279a.5.5 0 0 1 0-1c1.038 0 3-.94 3-4.5v-1.5c0-1.654-1.346-3-3-3s-3 1.346-3 3v1.5c0 1.724.461 3.043 1.332 3.814a.5.5 0 1 1-.662.749C12.908 10.668 12 9.33 12 6.779v-1.5c0-2.206 1.794-4 4-4s4 1.794 4 4v1.5c0 4.351-2.616 5.5-4 5.5zM23.618 28.279a.5.5 0 0 1-.221-.948l2.473-1.225a.5.5 0 0 1 .443 0l1.616.801-.263-1.784a.5.5 0 0 1 .138-.422l1.263-1.291-1.78-.303a.503.503 0 0 1-.359-.261l-.836-1.598-.837 1.598a.503.503 0 0 1-.359.261l-1.779.303 1.262 1.291a.5.5 0 0 1-.715.699l-1.929-1.973a.499.499 0 0 1 .274-.842l2.476-.422 1.165-2.224a.502.502 0 0 1 .886 0l1.164 2.224 2.477.422a.5.5 0 0 1 .274.842l-1.757 1.795.366 2.484a.503.503 0 0 1-.201.477.496.496 0 0 1-.516.043l-2.25-1.115-2.251 1.115a.49.49 0 0 1-.224.053zM13.076 31a.5.5 0 0 1-.495-.573l.438-2.983-2.108-2.156a.499.499 0 0 1 .274-.842l2.974-.506 1.398-2.671c.174-.33.713-.33.887 0l1.398 2.671 2.974.506a.5.5 0 0 1 .274.842l-2.109 2.156.439 2.983a.503.503 0 0 1-.201.477.496.496 0 0 1-.516.043L16 29.608l-2.702 1.339a.497.497 0 0 1-.222.053zm-.783-5.729 1.614 1.651c.109.112.16.268.138.422l-.336 2.283 2.069-1.025a.494.494 0 0 1 .443 0l2.068 1.025-.336-2.283a.5.5 0 0 1 .138-.422l1.615-1.651-2.277-.388a.503.503 0 0 1-.359-.261L16 22.577l-1.07 2.045a.503.503 0 0 1-.359.261zM8.463 28.279a.505.505 0 0 1-.222-.052l-2.25-1.115-2.251 1.116a.5.5 0 0 1-.717-.521l.366-2.484-1.757-1.795a.499.499 0 0 1 .274-.842l2.477-.422 1.165-2.224a.502.502 0 0 1 .886 0l1.164 2.224 2.476.422a.5.5 0 0 1 .274.842L8.419 25.4a.5.5 0 0 1-.715-.699l1.262-1.291-1.779-.303a.501.501 0 0 1-.359-.261l-.836-1.598-.837 1.598a.503.503 0 0 1-.359.261l-1.78.303 1.263 1.291c.109.112.16.268.138.422l-.263 1.784 1.617-.801a.5.5 0 0 1 .443 0l2.472 1.225a.5.5 0 0 1-.223.948z" fill="#11b76b" data-original="#000000" opacity="1"></path></g></svg>