<svg xmlns="http://www.w3.org/2000/svg" version="1.1" xmlns:xlink="http://www.w3.org/1999/xlink" xmlns:svgjs="http://svgjs.com/svgjs" width="512" height="512" x="0" y="0" viewBox="0 0 64 64" style="enable-background:new 0 0 512 512" xml:space="preserve" class=""><g><path fill="#11b76b" d="M11.848 42.616a2 2 0 0 1-2-1.982c-.021-2.471.395-4.9 1.239-7.222a2 2 0 0 1 3.76 1.367 16.558 16.558 0 0 0-.999 5.819 2 2 0 0 1-1.982 2.018h-.018z" data-original="#262626" opacity="1" class=""></path><path fill="#11b76b" d="M15.61 30.723a2 2 0 0 1-1.683-3.076l.538-.843a2 2 0 0 1 3.371 2.153l-.538.843a2.002 2.002 0 0 1-1.688.923z" data-original="#0cc121" class="" opacity="1"></path><path fill="#11b76b" d="M19.706 25.05a2 2 0 0 1-1.544-3.27l3.175-3.861a2 2 0 1 1 3.089 2.541l-3.175 3.861c-.395.48-.968.729-1.545.729zM27.429 60c-.328 0-.661-.08-.968-.251a11.48 11.48 0 0 1-5.899-9.864 2 2 0 0 1 1.973-2.026h.027c1.092 0 1.985.878 2 1.974a7.472 7.472 0 0 0 3.839 6.419A2 2 0 0 1 27.429 60zM36.568 60a2 2 0 0 1-.972-3.749 7.472 7.472 0 0 0 3.839-6.419c.014-1.105.889-1.967 2.027-1.974a2 2 0 0 1 1.973 2.026 11.479 11.479 0 0 1-5.899 9.864c-.307.172-.64.252-.968.252z" data-original="#262626" opacity="1" class=""></path><path fill="#11b76b" d="M41.436 51.858h-.027a2 2 0 0 1-1.973-2.027 14.607 14.607 0 0 0-10.688-14.258 2 2 0 1 1 1.07-3.854 18.609 18.609 0 0 1 13.617 18.166 2 2 0 0 1-1.999 1.973z" data-original="#262626" opacity="1" class=""></path><path fill="#11b76b" d="M27.728 41.823a2 2 0 0 1-1.538-3.277 5.358 5.358 0 0 0 1.133-4.503 1.998 1.998 0 0 1 1.564-2.356 1.997 1.997 0 0 1 2.357 1.563 9.341 9.341 0 0 1-1.976 7.851 1.997 1.997 0 0 1-1.54.722z" data-original="#262626" opacity="1" class=""></path><path fill="#11b76b" d="M22.561 51.858a2.001 2.001 0 0 1-2-1.978c-.05-4.427 2.684-7.752 5.096-10.686l.521-.636a2 2 0 1 1 3.101 2.527l-.532.649c-2.075 2.522-4.219 5.131-4.186 8.1a2 2 0 0 1-1.977 2.022c-.007.002-.015.002-.023.002zM52.149 42.616h-.027a2 2 0 0 1-1.973-2.027c.205-15.171-9.863-28.602-24.483-32.662a2 2 0 1 1 1.07-3.854c16.369 4.546 27.641 19.584 27.413 36.57a2 2 0 0 1-2 1.973z" data-original="#262626" opacity="1" class=""></path><path fill="#11b76b" d="M22.881 21.188a2 2 0 0 1-1.539-3.277A13.7 13.7 0 0 0 24.24 6.396a1.998 1.998 0 0 1 1.564-2.356 1.997 1.997 0 0 1 2.357 1.563 17.69 17.69 0 0 1-3.74 14.862 1.994 1.994 0 0 1-1.54.723zM27.433 60a2.06 2.06 0 0 1-.247-.015C17.434 58.784 9.98 50.469 9.848 40.643a2 2 0 0 1 1.973-2.026h.027c1.092 0 1.985.878 2 1.974.105 7.836 6.049 14.467 13.827 15.425A2 2 0 0 1 27.433 60zM36.564 60a2 2 0 0 1-.242-3.985c7.778-.958 13.722-7.589 13.827-15.425.015-1.105.901-2.001 2.027-1.974a2 2 0 0 1 1.973 2.026c-.132 9.826-7.586 18.142-17.338 19.343a2.06 2.06 0 0 1-.247.015z" data-original="#262626" opacity="1" class=""></path></g></svg>