<svg xmlns="http://www.w3.org/2000/svg" version="1.1" xmlns:xlink="http://www.w3.org/1999/xlink" xmlns:svgjs="http://svgjs.com/svgjs" width="512" height="512" x="0" y="0" viewBox="0 0 512 512" style="enable-background:new 0 0 512 512" xml:space="preserve" class=""><g><path d="M501.333 362.667h-32V128c0-23.531-19.135-42.667-42.667-42.667H85.333c-23.531 0-42.667 19.135-42.667 42.667v234.667h-32A10.66 10.66 0 0 0 0 373.333V384c0 23.531 19.135 42.667 42.667 42.667h426.667C492.865 426.667 512 407.531 512 384v-10.667a10.66 10.66 0 0 0-10.667-10.666zM64 128c0-11.76 9.573-21.333 21.333-21.333h341.333c11.76 0 21.333 9.573 21.333 21.333v234.667H64V128zm405.333 277.333H42.667c-11.76 0-21.333-9.573-21.333-21.333H198.25l7.542 7.542c2 2 4.708 3.125 7.542 3.125h85.333a10.66 10.66 0 0 0 7.542-3.125L313.75 384h176.917c0 11.76-9.573 21.333-21.334 21.333z" fill="#272727" data-original="#000000" opacity="1" class=""></path></g></svg>