<svg xmlns="http://www.w3.org/2000/svg" version="1.1" xmlns:xlink="http://www.w3.org/1999/xlink" xmlns:svgjs="http://svgjs.com/svgjs" width="512" height="512" x="0" y="0" viewBox="0 0 24 24" style="enable-background:new 0 0 512 512" xml:space="preserve"><g><path d="M17.3 11c2.3 0 4.3-1.9 4.3-4.3s-1.9-4.3-4.3-4.3-4.3 2-4.3 4.4 1.9 4.2 4.3 4.2zm0-6.5c1.2 0 2.3 1 2.3 2.3S18.5 9 17.3 9 15 8 15 6.8s1-2.3 2.3-2.3zm0 8.5C15 13 13 14.9 13 17.3s1.9 4.3 4.3 4.3 4.3-1.9 4.3-4.3-2-4.3-4.3-4.3zm0 6.5c-1.2 0-2.3-1-2.3-2.3s1-2.3 2.3-2.3 2.3 1 2.3 2.3-1.1 2.3-2.3 2.3zM6.8 2.5c-2.3 0-4.3 1.9-4.3 4.3S4.4 11 6.8 11 11 9.1 11 6.8 9.1 2.5 6.8 2.5zm0 6.5C5.5 9 4.5 8 4.5 6.8s1-2.3 2.3-2.3S9 5.5 9 6.8 8 9 6.8 9zm0 4c-2.3 0-4.3 1.9-4.3 4.3s1.9 4.3 4.3 4.3 4.3-1.9 4.3-4.3-2-4.3-4.3-4.3zm0 6.5c-1.2 0-2.3-1-2.3-2.3s1-2.3 2.3-2.3S9 16 9 17.3s-1 2.2-2.2 2.2z" fill="#11b76b" data-original="#000000" opacity="1"></path></g></svg>