<svg xmlns="http://www.w3.org/2000/svg" version="1.1" xmlns:xlink="http://www.w3.org/1999/xlink" xmlns:svgjs="http://svgjs.com/svgjs" width="512" height="512" x="0" y="0" viewBox="0 0 682.667 682.667" style="enable-background:new 0 0 512 512" xml:space="preserve" class=""><g><defs><clipPath id="a" clipPathUnits="userSpaceOnUse"><path d="M0 512h512V0H0Z" fill="#272727" data-original="#000000" opacity="1"></path></clipPath></defs><g clip-path="url(#a)" transform="matrix(1.33333 0 0 -1.33333 0 682.667)"><path d="m0 0 3.032 3.026a66.652 66.652 0 0 1 17.321 64.32v0h23.752a43.134 43.134 0 0 1 20.928 5.417v0c16.833 9.34 37.817 6.395 51.429-7.217l2.72-2.72c25.13-25.13 25.13-65.874 0-91.004v0c-25.13-25.13-65.874-25.13-91.004 0L0 0" style="stroke-width:20;stroke-linecap:round;stroke-linejoin:round;stroke-miterlimit:10;stroke-dasharray:none;stroke-opacity:1" transform="translate(166.84 329.227)" fill="none" stroke="#272727" stroke-width="20" stroke-linecap="round" stroke-linejoin="round" stroke-miterlimit="10" stroke-dasharray="none" stroke-opacity="" data-original="#000000" opacity="1" class=""></path><path d="M0 0c-23.518 48.475-19.243 103.367 15.265 137.876 45.784 45.783 127.448 38.349 182.403-16.606C249.104 69.834 258.91-5.001 222.415-51.913" style="stroke-width:20;stroke-linecap:round;stroke-linejoin:round;stroke-miterlimit:10;stroke-dasharray:none;stroke-opacity:1" transform="translate(131.572 334.114)" fill="none" stroke="#272727" stroke-width="20" stroke-linecap="round" stroke-linejoin="round" stroke-miterlimit="10" stroke-dasharray="none" stroke-opacity="" data-original="#000000" opacity="1" class=""></path><path d="M0 0c0-6.658-5.397-12.055-12.055-12.055" style="stroke-width:20;stroke-linecap:round;stroke-linejoin:round;stroke-miterlimit:10;stroke-dasharray:none;stroke-opacity:1" transform="translate(247.01 335.255)" fill="none" stroke="#272727" stroke-width="20" stroke-linecap="round" stroke-linejoin="round" stroke-miterlimit="10" stroke-dasharray="none" stroke-opacity="" data-original="#000000" opacity="1" class=""></path><path d="M0 0c.323-.33.649-.659.976-.986 13.613-13.613 29.606-23.815 47.197-30.709" style="stroke-width:20;stroke-linecap:round;stroke-linejoin:round;stroke-miterlimit:10;stroke-dasharray:none;stroke-opacity:1" transform="translate(137.341 82.387)" fill="none" stroke="#272727" stroke-width="20" stroke-linecap="round" stroke-linejoin="round" stroke-miterlimit="10" stroke-dasharray="none" stroke-opacity="" data-original="#000000" opacity="1" class=""></path><path d="M0 0c-2.332-24.075-.302-47.43 6.259-68.797" style="stroke-width:20;stroke-linecap:round;stroke-linejoin:round;stroke-miterlimit:10;stroke-dasharray:none;stroke-opacity:1" transform="translate(97.633 208.052)" fill="none" stroke="#272727" stroke-width="20" stroke-linecap="round" stroke-linejoin="round" stroke-miterlimit="10" stroke-dasharray="none" stroke-opacity="" data-original="#000000" opacity="1" class=""></path><path d="M0 0c0 36.199-29.345 65.544-65.544 65.544-36.2 0-65.545-29.345-65.545-65.544s29.345-65.544 65.545-65.544C-29.345-65.544 0-36.199 0 0Z" style="stroke-width:20;stroke-linecap:round;stroke-linejoin:round;stroke-miterlimit:10;stroke-dasharray:none;stroke-opacity:1" transform="translate(191.514 267.711)" fill="none" stroke="#272727" stroke-width="20" stroke-linecap="round" stroke-linejoin="round" stroke-miterlimit="10" stroke-dasharray="none" stroke-opacity="" data-original="#000000" opacity="1" class=""></path><path d="M0 0c-17.834 42.091-60.266 75.748-114.372 91.113" style="stroke-width:20;stroke-linecap:round;stroke-linejoin:round;stroke-miterlimit:10;stroke-dasharray:none;stroke-opacity:1" transform="translate(442.418 199.24)" fill="none" stroke="#272727" stroke-width="20" stroke-linecap="round" stroke-linejoin="round" stroke-miterlimit="10" stroke-dasharray="none" stroke-opacity="" data-original="#000000" opacity="1" class=""></path><path d="M0 0c0-46.674-51.042-84.51-114.005-84.51-12.348 0-24.238 1.455-35.374 4.147-14.325 3.462-29.214-2.938-36.598-15.694v0c-11.354-19.616-.241-44.667 21.95-49.281 15.937-3.313 32.709-5.082 50.022-5.082 84.768 0 156.551 42.4 180.88 100.911" style="stroke-width:20;stroke-linecap:round;stroke-linejoin:round;stroke-miterlimit:10;stroke-dasharray:none;stroke-opacity:1" transform="translate(375.856 160.42)" fill="none" stroke="#272727" stroke-width="20" stroke-linecap="round" stroke-linejoin="round" stroke-miterlimit="10" stroke-dasharray="none" stroke-opacity="" data-original="#000000" opacity="1" class=""></path><path d="M0 0c0 30.832-23.081 56.274-52.906 59.989-5.195.647-10.04 2.957-13.741 6.658v0c-11.885 11.885-7.669 32.059 7.981 38.189l18.393 7.204c22.105 8.659 40.61 24.888 51.284 46.093 6.364 12.643 9.728 26.284 9.815 40.417.075 12.35-10.09 23.158-22.439 23.337-12.736.185-23.119-10.083-23.119-22.777 0-28.282-28.252-53.038-66.223-61.672-20.783-4.726-46.093-12.421-66.063-19.777" style="stroke-width:20;stroke-linecap:round;stroke-linejoin:round;stroke-miterlimit:10;stroke-dasharray:none;stroke-opacity:1" transform="translate(307.467 89.23)" fill="none" stroke="#272727" stroke-width="20" stroke-linecap="round" stroke-linejoin="round" stroke-miterlimit="10" stroke-dasharray="none" stroke-opacity="" data-original="#000000" opacity="1" class=""></path><path d="M0 0c-2.424-8.29-11.109-13.045-19.399-10.622" style="stroke-width:20;stroke-linecap:round;stroke-linejoin:round;stroke-miterlimit:10;stroke-dasharray:none;stroke-opacity:1" transform="translate(191.508 267.027)" fill="none" stroke="#272727" stroke-width="20" stroke-linecap="round" stroke-linejoin="round" stroke-miterlimit="10" stroke-dasharray="none" stroke-opacity="" data-original="#000000" opacity="1" class=""></path><path d="M0 0c0-18.183-14.74-32.923-32.923-32.923S-65.846-18.183-65.846 0s14.74 32.923 32.923 32.923S0 18.183 0 0Z" style="stroke-width:20;stroke-linecap:round;stroke-linejoin:round;stroke-miterlimit:10;stroke-dasharray:none;stroke-opacity:1" transform="translate(147.285 106.923)" fill="none" stroke="#272727" stroke-width="20" stroke-linecap="round" stroke-linejoin="round" stroke-miterlimit="10" stroke-dasharray="none" stroke-opacity="" data-original="#000000" opacity="1" class=""></path><path d="m0 0-9.831-62.65" style="stroke-width:20;stroke-linecap:round;stroke-linejoin:round;stroke-miterlimit:10;stroke-dasharray:none;stroke-opacity:1" transform="translate(245.687 74)" fill="none" stroke="#272727" stroke-width="20" stroke-linecap="round" stroke-linejoin="round" stroke-miterlimit="10" stroke-dasharray="none" stroke-opacity="" data-original="#000000" opacity="1" class=""></path><path d="M0 0h-.053" style="stroke-width:20;stroke-linecap:round;stroke-linejoin:round;stroke-miterlimit:10;stroke-dasharray:none;stroke-opacity:1" transform="translate(451.574 154.702)" fill="none" stroke="#272727" stroke-width="20" stroke-linecap="round" stroke-linejoin="round" stroke-miterlimit="10" stroke-dasharray="none" stroke-opacity="" data-original="#000000" opacity="1" class=""></path></g></g></svg>