<svg xmlns="http://www.w3.org/2000/svg" version="1.1" xmlns:xlink="http://www.w3.org/1999/xlink" xmlns:svgjs="http://svgjs.com/svgjs" width="512" height="512" x="0" y="0" viewBox="0 0 32 32" style="enable-background:new 0 0 512 512" xml:space="preserve" class=""><g><path d="M19.84 13.27a.9.9 0 0 0-.9-.9H7.81a.9.9 0 0 0 0 1.8h11.13a.9.9 0 0 0 .9-.9zM14.52 18.6a.9.9 0 0 0-.9-.9H7.8a.9.9 0 0 0 0 1.8h5.82a.9.9 0 0 0 .9-.9zM7.8 23.04a.9.9 0 0 0 0 1.8h4.13a.9.9 0 0 0 0-1.8z" fill="#11b76b" data-original="#000000" class="" opacity="1"></path><path d="M27.15 22.409a.9.9 0 0 0-.9.9v3.73c0 1.136-.924 2.06-2.06 2.06H5.91a2.062 2.062 0 0 1-2.06-2.06V7.57c0-1.136.924-2.06 2.06-2.06h2.46v.225a2.382 2.382 0 0 0 2.38 2.38h8.6a2.382 2.382 0 0 0 2.38-2.38v-.224h2.46c1.136 0 2.06.924 2.06 2.06v.739a.9.9 0 0 0 1.8 0v-.74a3.864 3.864 0 0 0-3.86-3.86h-2.46v-.23a2.383 2.383 0 0 0-2.38-2.381h-8.6A2.383 2.383 0 0 0 8.37 3.48v.23H5.91a3.865 3.865 0 0 0-3.86 3.86v19.47a3.864 3.864 0 0 0 3.86 3.86h18.28a3.865 3.865 0 0 0 3.86-3.86v-3.73a.9.9 0 0 0-.9-.901zM10.17 3.48c0-.32.26-.58.58-.58h8.6c.32 0 .58.26.58.58v2.255a.58.58 0 0 1-.58.579h-8.6a.58.58 0 0 1-.58-.579z" fill="#11b76b" data-original="#000000" class="" opacity="1"></path><path d="M28.968 12.365a3.353 3.353 0 0 0-4.738 0l-8.274 8.274a1.762 1.762 0 0 0-.496.961l-.453 2.683a1.775 1.775 0 0 0 2.043 2.046l2.684-.453c.363-.062.694-.232.958-.495l8.275-8.275a3.355 3.355 0 0 0 .001-4.741zM19.435 24.1l-2.653.482.446-2.668 5.955-5.955 2.194 2.194zm8.261-8.269-1.047 1.048-2.193-2.193 1.047-1.047c.302-.303.7-.454 1.097-.454s.794.151 1.097.454a1.553 1.553 0 0 1-.001 2.192z" fill="#11b76b" data-original="#000000" class="" opacity="1"></path></g></svg>