<svg xmlns="http://www.w3.org/2000/svg" version="1.1" xmlns:xlink="http://www.w3.org/1999/xlink" xmlns:svgjs="http://svgjs.com/svgjs" width="512" height="512" x="0" y="0" viewBox="0 0 682.667 682.667" style="enable-background:new 0 0 512 512" xml:space="preserve" class=""><g><defs><clipPath id="a" clipPathUnits="userSpaceOnUse"><path d="M0 512h512V0H0Z" fill="#272727" data-original="#000000" opacity="1"></path></clipPath></defs><g clip-path="url(#a)" transform="matrix(1.33333 0 0 -1.33333 0 682.667)"><path d="m0 0-26.229-26.228m0 26.228L0-26.228m165.413.706c5.458 2.392 20.684 10.986 20.684 32.408 0 18.491-14.235 42.352-40.53 63.713m-23.725 16.499c-14.284 8.521-30.77 16.156-49.276 22.246m-171.158.067c-72.21-23.698-113.734-70.942-113.734-102.525 0-21.125 14.807-29.775 20.451-32.305m126.311-79.602c15.825-4.725 33.627-6.937 52.449-6.937 8.263 0 16.331.426 24.12 1.304M105.183-2.687c-3.184 32.439-15.618 74.856-34.086 111.133m-168.356.135c-7.57-14.851-14.128-30.735-19.453-46.544m17.978-80.229c1.714 46.007 39.391 82.777 85.62 82.777 46.191 0 83.844-36.71 85.615-82.665M36.644-74.815c-12.411-4.575-28.682-7.143-49.758-7.143-20.914 0-37.096 2.528-49.47 7.038m-62.619 107.662c-3.031-12.527-5.142-24.54-6.211-35.429m162.51 217.732v-15m-88.42 15v-15M119.852-84.21c0 14.22-11.528 25.748-25.748 25.748S68.356-69.99 68.356-84.21c0-14.221 11.528-25.748 25.748-25.748s25.748 11.527 25.748 25.748zm-265.933 0c0 14.22 11.528 25.748 25.748 25.748 14.221 0 25.749-11.528 25.749-25.748 0-14.221-11.528-25.748-25.749-25.748-14.22 0-25.748 11.527-25.748 25.748zM134.048-7.758l-16.196-24.793m52.188-12.051-24.277-15.86M36.355-82.323c0-32.936 26.7-59.635 59.636-59.635 38.27 0 79.636 41.366 79.636 79.635 0 32.936-26.7 59.636-59.636 59.636-38.269 0-79.636-41.367-79.636-79.636zM-160.191-7.89l16.11-24.661m-52.373-11.93 24.462-15.981m29.772 57.775c-32.936 0-59.635-26.7-59.635-59.636 0-38.269 41.366-79.635 79.635-79.635 32.936 0 59.636 26.699 59.636 59.635 0 38.269-41.367 79.636-79.636 79.636zm250.197 259.376c23.253 4.082 40.923 24.379 40.923 48.802 0 27.366-22.184 49.551-49.55 49.551-23.168 0-42.623-15.901-48.046-37.386m-128.856 0c-5.423 21.485-24.877 37.386-48.046 37.386-27.365 0-49.55-22.185-49.55-49.551 0-24.423 17.67-44.72 40.923-48.802m121.111-107.315V94.585m-29.456 80.876c.894-9.646 13.7-24.704 29.456-24.704 15.755 0 28.561 15.058 29.456 24.704m-29.456 9.296c-32.594 0-59.017-28.566-59.017-55.777 0-21.878 26.423-35.778 59.017-35.778 32.593 0 59.016 13.9 59.016 35.778 0 27.211-26.423 55.777-59.016 55.777zm-.01 146.988c22.543 0 43.761-5.142 62.306-14.203 41.216-20.14 75.593-79.638 75.593-125.068 0-65.872-61.735-99.272-137.889-99.272-76.155 0-137.889 33.4-137.889 99.272 0 45.287 34.181 104.678 75.183 124.876a138.939 138.939 0 0 0 30.448 10.784" style="stroke-width:15;stroke-linecap:round;stroke-linejoin:round;stroke-miterlimit:10;stroke-dasharray:none;stroke-opacity:1" transform="translate(269.114 149.458)" fill="none" stroke="#272727" stroke-width="15" stroke-linecap="round" stroke-linejoin="round" stroke-miterlimit="10" stroke-dasharray="none" stroke-opacity="" data-original="#000000" opacity="1" class=""></path></g></g></svg>